<?xml version="1.0"?>
<svg xmlns="http://www.w3.org/2000/svg" xmlns:xlink="http://www.w3.org/1999/xlink" xmlns:svgjs="http://svgjs.com/svgjs" version="1.1" width="512" height="512" x="0" y="0" viewBox="0 0 487 487.288" style="enable-background:new 0 0 512 512" xml:space="preserve" class=""><g transform="matrix(-1.8369701987210297e-16,1,-1,-1.8369701987210297e-16,487.416015625,-0.1269531249998579)"><path xmlns="http://www.w3.org/2000/svg" d="m241.742188 245.65625h-192l92.691406 99.3125 19.308594 20.6875h160l112-120zm0 0" fill="#d1f173" data-original="#78b9eb" style="" class=""/><g xmlns="http://www.w3.org/2000/svg" fill="#1a6fb0"><path d="m433.742188 237.65625h-172.6875l226.34375-226.34375-11.308594-11.3125-237.65625 237.65625h-188.691406c-3.183594 0-6.0625 1.890625-7.332032 4.8125-1.269531 2.917969-.6875 6.3125 1.484375 8.644531l87.449219 93.664063-131.199219 131.199218 11.3125 11.3125 130.773438-130.808593 11.511719 12.328125v92.847656c0 13.253906 10.746093 24 24 24h128c13.257812 0 24-10.746094 24-24v-92.847656l109.851562-117.695313c2.171875-2.332031 2.753906-5.726562 1.484375-8.644531-1.269531-2.921875-4.148437-4.8125-7.335937-4.8125zm-120 224c0 4.417969-3.578126 8-8 8h-128c-4.417969 0-8-3.582031-8-8v-88h144zm-148.519532-104-11.671875-12.496094 91.503907-91.503906h170.289062l-97.078125 104zm57.210938-104-79.800782 79.800781-74.488281-79.800781zm0 0" fill="#4e89b2" data-original="#1a6fb0" style="" class=""/><path d="m237.742188 26.457031c55.179687-.1875 108.140624 21.707031 147.082031 60.800781l11.320312-11.257812c-87.539062-87.347656-229.261719-87.347656-316.800781 0l11.3125 11.3125c38.933594-39.117188 91.898438-61.027344 147.085938-60.855469zm0 0" fill="#4e89b2" data-original="#1a6fb0" style="" class=""/><path d="m350.878906 121.257812c-62.523437-62.386718-163.746094-62.386718-226.269531 0l11.3125 11.308594c56.273437-56.140625 147.371094-56.140625 203.644531 0zm0 0" fill="#4e89b2" data-original="#1a6fb0" style="" class=""/><path d="m169.863281 166.503906 11.3125 11.320313c31.261719-31.191407 81.875-31.191407 113.136719 0l11.3125-11.320313c-37.515625-37.425781-98.246094-37.425781-135.761719 0zm0 0" fill="#4e89b2" data-original="#1a6fb0" style="" class=""/></g></g></svg>
