<svg height="512pt" viewBox="0 -13 512 512" width="512pt" xmlns="http://www.w3.org/2000/svg"><path d="m135.808594 94.125v107.285156c-13.296875-5.457031-29.585938-7.195312-47.195313-4.09375-44.796875 7.902344-81.113281 44.03125-81.113281 80.703125s36.316406 60 81.113281 52.101563c44.796875-7.902344 81.113281-44.03125 81.113281-80.703125v-161.273438zm0 0" fill="#f7ef87"/><path d="m131.652344 312.40625c-49.933594-14.523438-67.996094-80.394531-54.535156-112.386719-39.347657 11.511719-69.617188 44.527344-69.617188 78 0 36.671875 36.316406 60 81.113281 52.101563 15.816407-2.789063 30.5625-9.109375 43.039063-17.714844zm0 0" fill="#efd176"/><path d="m62.777344 299.746094c-1.917969 0-3.839844-.734375-5.300782-2.199219-2.929687-2.929687-2.929687-7.675781 0-10.605469l8.90625-8.910156c2.929688-2.929688 7.679688-2.929688 10.605469 0 2.929688 2.929688 2.929688 7.679688 0 10.605469l-8.90625 8.910156c-1.464843 1.464844-3.386719 2.199219-5.304687 2.199219zm0 0" fill="#f7ef87"/><path d="m135.808594 94.125 88.972656-15.6875c24.75-4.363281 42.796875-25.871094 42.796875-51 0-12.394531-11.191406-21.785156-23.398437-19.632812l-82.863282 14.609374c-14.75 2.601563-25.507812 15.421876-25.507812 30.402344zm0 0" fill="#eea849"/><path d="m201.84375 15.269531-40.527344 7.144531c-14.75 2.601563-25.507812 15.421876-25.507812 30.402344v41.308594l76.972656-13.570312c-12.660156-18.183594-14.164062-48.304688-10.9375-65.285157zm0 0" fill="#e9901b"/><path d="m254.886719 240.492188v107.285156c-13.296875-5.460938-29.585938-7.199219-47.195313-4.09375-44.796875 7.898437-81.113281 44.03125-81.113281 80.703125s36.3125 59.996093 81.113281 52.097656c44.796875-7.898437 81.113282-44.03125 81.113282-80.703125v-161.269531zm0 0" fill="#a3defe"/><path d="m250.726562 458.769531c-49.929687-14.523437-67.992187-80.394531-54.53125-112.382812-39.351562 11.507812-69.617187 44.523437-69.617187 78 0 36.671875 36.3125 59.996093 81.113281 52.097656 15.8125-2.789063 30.558594-9.105469 43.035156-17.714844zm0 0" fill="#7acefa"/><path d="m470.585938 202.457031v107.285157c-13.300782-5.457032-29.585938-7.195313-47.199219-4.09375-44.796875 7.902343-81.113281 44.03125-81.113281 80.703124 0 36.671876 36.316406 60 81.113281 52.101563 44.796875-7.902344 81.113281-44.03125 81.113281-80.703125v-161.273438zm0 0" fill="#a3defe"/><g fill="#7acefa"><path d="m466.425781 420.734375c-49.933593-14.519531-67.992187-80.390625-54.53125-112.382813-39.355469 11.511719-69.621093 44.527344-69.621093 78 0 36.671876 36.316406 60 81.113281 52.101563 15.816406-2.789063 30.5625-9.109375 43.039062-17.71875zm0 0"/><path d="m449.285156 363.765625c-1.917968 0-3.839844-.730469-5.304687-2.199219-2.925781-2.925781-2.925781-7.675781 0-10.605468l10.269531-10.269532c2.929688-2.929687 7.679688-2.929687 10.605469 0 2.929687 2.929688 2.929687 7.679688 0 10.605469l-10.265625 10.269531c-1.464844 1.46875-3.386719 2.199219-5.304688 2.199219zm0 0"/><path d="m236.132812 434.390625c-1.921874 0-3.839843-.734375-5.304687-2.199219-2.929687-2.929687-2.929687-7.675781 0-10.605468l10.65625-10.65625c2.929687-2.929688 7.679687-2.929688 10.609375 0 2.925781 2.925781 2.925781 7.675781 0 10.605468l-10.660156 10.65625c-1.464844 1.464844-3.382813 2.199219-5.300782 2.199219zm0 0"/></g><path d="m254.886719 240.492188 249.613281-44.015626v-43.453124c0-12.394532-11.191406-21.785157-23.398438-19.632813l-200.707031 35.390625c-14.75 2.601562-25.507812 15.421875-25.507812 30.402344zm0 0" fill="#f7ef87"/><path d="m389.179688 149.597656-108.785157 19.183594c-14.75 2.601562-25.507812 15.417969-25.507812 30.398438v41.3125l146.027343-25.75c-17.882812-12.84375-19.882812-40.738282-11.734374-65.144532zm0 0" fill="#efd176"/><path d="m347.339844 204.148438c-1.511719-8.578126-11.472656-13.992188-22.242188-12.09375-10.773437 1.898437-18.28125 10.394531-16.769531 18.972656 1.515625 8.578125 11.472656 13.992187 22.246094 12.09375 10.769531-1.898438 18.277343-10.394532 16.765625-18.972656zm0 0" fill="#eda1ab"/><path d="m414.078125 192.351562c1.511719 8.578126 11.472656 13.992188 22.246094 12.09375 10.769531-1.898437 18.277343-10.394531 16.765625-18.972656-1.511719-8.578125-11.472656-13.992187-22.242188-12.09375-10.773437 1.898438-18.28125 10.394532-16.769531 18.972656zm0 0" fill="#eda1ab"/><path d="m177.226562 249.417969v-154.980469l48.859376-8.613281c28.386718-5.007813 48.992187-29.5625 48.992187-58.386719 0-8.128906-3.570313-15.789062-9.800781-21.015625-6.226563-5.226563-14.390625-7.414063-22.398438-6.003906l-82.863281 14.613281c-18.371094 3.238281-31.707031 19.128906-31.707031 37.785156v138.230469c-12.640625-3.253906-26.613282-3.652344-40.996094-1.113281-12.664062 2.230468-24.863281 6.5625-36.261719 12.875-3.625 2.007812-4.933593 6.574218-2.929687 10.195312 1.371094 2.472656 3.929687 3.871094 6.570312 3.871094 1.230469 0 2.476563-.304688 3.625-.941406 9.945313-5.507813 20.578125-9.285156 31.597656-11.230469 15.640626-2.757813 30.523438-1.496094 43.046876 3.644531 2.316406.949219 4.949218.6875 7.027343-.707031 2.074219-1.390625 3.324219-3.726563 3.324219-6.230469v-100.992187l18.914062-3.332031v152.332031c0 33.140625-33.605468 66.03125-74.914062 73.316406-22.46875 3.960937-43.265625-.402344-57.058594-11.976563-9.980468-8.371093-15.253906-19.691406-15.253906-32.738281 0-14.089843 6.324219-28.960937 17.808594-41.871093 2.75-3.09375 2.472656-7.832032-.621094-10.585938s-7.835938-2.476562-10.585938.617188c-13.929687 15.65625-21.601562 34.070312-21.601562 51.839843 0 17.371094 7.320312 33.078125 20.609375 44.230469 13.179687 11.058594 31.089844 16.90625 50.824219 16.90625 6.019531 0 12.207031-.542969 18.480468-1.648438 23.160157-4.085937 44.949219-15.320312 61.34375-31.632812 16.746094-16.660156 25.96875-36.710938 25.96875-56.457031zm-33.917968-164.230469v-32.371094c0-11.363281 8.125-21.042968 19.3125-23.015625l82.863281-14.609375c.722656-.128906 1.449219-.191406 2.167969-.191406 2.898437 0 5.722656 1.015625 7.984375 2.914062 2.824219 2.367188 4.441406 5.839844 4.441406 9.523438 0 21.53125-15.390625 39.875-36.597656 43.613281zm282.335937 82.0625c-.71875-4.078125-4.609375-6.800781-8.6875-6.082031s-6.804687 4.605469-6.085937 8.6875l1.214844 6.886719c.640624 3.640624 3.804687 6.199218 7.378906 6.199218.429687 0 .871094-.035156 1.308594-.113281 4.082031-.71875 6.804687-4.609375 6.085937-8.6875zm-82.988281 14.632812c-.722656-4.078124-4.605469-6.800781-8.691406-6.082031-4.078125.71875-6.800782 4.609375-6.082032 8.6875l1.214844 6.890625c.640625 3.636719 3.804688 6.199219 7.378906 6.199219.429688 0 .871094-.039063 1.308594-.117187 4.078125-.71875 6.804688-4.609376 6.082032-8.6875zm159.542969-49.875c-6.226563-5.226562-14.390625-7.414062-22.398438-6.003906l-200.707031 35.390625c-18.371094 3.238281-31.707031 19.132813-31.707031 37.785157v138.230468c-12.644531-3.25-26.613281-3.648437-41-1.113281-23.160157 4.085937-44.945313 15.316406-61.339844 31.628906-16.746094 16.664063-25.96875 36.710938-25.96875 56.460938 0 17.367187 7.320313 33.074219 20.609375 44.226562 13.179688 11.058594 31.089844 16.90625 50.824219 16.90625 6.019531 0 12.210937-.542969 18.480469-1.648437 23.160156-4.085938 44.949218-15.320313 61.34375-31.632813 16.746093-16.660156 25.96875-36.710937 25.96875-56.457031v-154.976562l166.78125-29.410157v87.984375c-12.644532-3.253906-26.613282-3.652344-41-1.117187-23.160157 4.085937-44.945313 15.320312-61.34375 31.632812-16.742188 16.660157-25.964844 36.710938-25.964844 56.457031 0 17.367188 7.320312 33.074219 20.609375 44.226563 13.179687 11.058594 31.089843 16.910156 50.824219 16.90625 6.015624 0 12.207031-.542969 18.480468-1.648437 8.796875-1.550782 17.472656-4.152344 25.785156-7.738282 3.804688-1.636718 5.558594-6.050781 3.921876-9.855468-1.640626-3.804688-6.054688-5.558594-9.859376-3.917969-7.246093 3.125-14.800781 5.390625-22.453124 6.738281-22.472657 3.964844-43.265626-.402344-57.058594-11.972656-9.976563-8.375-15.25-19.695313-15.25-32.738282 0-33.140624 33.605468-66.03125 74.914062-73.316406 15.636719-2.753906 30.523438-1.496094 43.046875 3.644532 2.3125.949218 4.945313.6875 7.023438-.707032 2.078125-1.390625 3.324219-3.726562 3.324219-6.226562v-100.996094l18.914062-3.335938v152.335938c0 16.777344-8.980469 34.550781-24.636719 48.757812-3.066406 2.785157-3.296875 7.527344-.515625 10.59375 1.480469 1.632813 3.515625 2.460938 5.558594 2.460938 1.796875 0 3.601562-.640625 5.035156-1.945312 18.785156-17.046876 29.558594-38.867188 29.558594-59.867188v-204.726562c0-8.132813-3.570312-15.792969-9.800781-21.015626zm-220.898438 263.773438c0 33.144531-33.605469 66.03125-74.914062 73.316406-22.46875 3.964844-43.265625-.402344-57.058594-11.972656-9.976563-8.375-15.253906-19.695312-15.253906-32.738281 0-33.144531 33.609375-66.035157 74.917969-73.316407 15.640624-2.761718 30.523437-1.496093 43.042968 3.644532 2.316406.949218 4.949219.683594 7.027344-.707032 2.078125-1.394531 3.324219-3.730468 3.324219-6.230468v-100.992188l18.914062-3.335937zm215.699219-205.597656-234.613281 41.367187v-32.371093c0-11.359376 8.121093-21.039063 19.3125-23.011719l200.707031-35.390625c.722656-.128906 1.449219-.191406 2.167969-.191406 2.898437 0 5.722656 1.011718 7.984375 2.910156 2.824218 2.371094 4.441406 5.839844 4.441406 9.527344zm-104.15625-15.472656c-3.550781-2.140626-8.15625-.996094-10.296875 2.550781-1.082031 1.796875-2.882813 3.035156-4.9375 3.398437-2.058594.363282-4.171875-.183594-5.804687-1.503906-3.222657-2.601562-7.945313-2.101562-10.546876 1.125-2.601562 3.21875-2.101562 7.941406 1.121094 10.546875 3.992188 3.222656 8.933594 4.941406 13.976563 4.941406 1.285156 0 2.574219-.109375 3.859375-.335937 6.328125-1.117188 11.859375-4.917969 15.183594-10.429688 2.132812-3.546875.992187-8.15625-2.554688-10.292968zm0 0"/></svg>