<?xml version="1.0" encoding="UTF-8" standalone="no"?>
<svg
   xmlns:dc="http://purl.org/dc/elements/1.1/"
   xmlns:cc="http://creativecommons.org/ns#"
   xmlns:rdf="http://www.w3.org/1999/02/22-rdf-syntax-ns#"
   xmlns:svg="http://www.w3.org/2000/svg"
   xmlns="http://www.w3.org/2000/svg"
   xmlns:sodipodi="http://sodipodi.sourceforge.net/DTD/sodipodi-0.dtd"
   xmlns:inkscape="http://www.inkscape.org/namespaces/inkscape"
   inkscape:version="1.0 (4035a4fb49, 2020-05-01)"
   sodipodi:docname="musicOff1.svg"
   id="svg190"
   version="1.1"
   viewBox="0 0 64 64">
  <metadata
     id="metadata196">
    <rdf:RDF>
      <cc:Work
         rdf:about="">
        <dc:format>image/svg+xml</dc:format>
        <dc:type
           rdf:resource="http://purl.org/dc/dcmitype/StillImage" />
      </cc:Work>
    </rdf:RDF>
  </metadata>
  <defs
     id="defs194" />
  <sodipodi:namedview
     inkscape:current-layer="svg190"
     inkscape:window-maximized="1"
     inkscape:window-y="-9"
     inkscape:window-x="-9"
     inkscape:cy="31.845783"
     inkscape:cx="32"
     inkscape:zoom="12.96875"
     showgrid="false"
     id="namedview192"
     inkscape:window-height="1001"
     inkscape:window-width="1920"
     inkscape:pageshadow="2"
     inkscape:pageopacity="0"
     guidetolerance="10"
     gridtolerance="10"
     objecttolerance="10"
     borderopacity="1"
     bordercolor="#666666"
     pagecolor="#ffffff" />
  <g
     id="g188"
     data-name="filled line">
    <polygon
       id="polygon178"
       points="34 18.614 34 14.886 46 19.386 46 23.114 34 18.614"
       fill="#42a5f5" />
    <path
       id="path180"
       d="M30,44a5.9968,5.9968,0,0,1-11.12,3.12A5.91,5.91,0,0,1,18,44a6.0048,6.0048,0,0,1,6-6,5.91,5.91,0,0,1,3.12.88A5.9767,5.9767,0,0,1,30,44Z"
       fill="#42a5f5" />
    <path
       id="path182"
       d="M28,42a6.0048,6.0048,0,0,1-6,6,5.91,5.91,0,0,1-3.12-.88A5.91,5.91,0,0,1,18,44a5.6029,5.6029,0,0,1,.22-1.59,5.9844,5.9844,0,0,1,4.19-4.19A5.6029,5.6029,0,0,1,24,38a5.91,5.91,0,0,1,3.12.88A5.91,5.91,0,0,1,28,42Z"
       fill="#90caf9" />
    <path
       id="path184"
       d="M23 40a2.995 2.995 0 0 1-4.78 2.41 5.9844 5.9844 0 0 1 4.19-4.19A2.9714 2.9714 0 0 1 23 40zM26 43a.9994.9994 0 0 1-1.8533.52A.9844.9844 0 0 1 24 43a1.0007 1.0007 0 0 1 1-1 .9844.9844 0 0 1 .52.1467A.9961.9961 0 0 1 26 43z"
       fill="#e3f2fd" />
    <path
       id="path186"
       d="M53.707,10.293a.9994.9994,0,0,0-1.414,0l-5.999,5.9989L32.3516,11.0635A1.0007,1.0007,0,0,0,31,12V31.5859l-3.9554,3.9555A8.9745,8.9745,0,0,0,15.5414,47.0445L10.293,52.293a1,1,0,1,0,1.414,1.414l4.7741-4.774A8.9943,8.9943,0,0,0,33,44V32.4141l7.9787-7.9787,6.67,2.5011A1.0087,1.0087,0,0,0,48,27a1.0007,1.0007,0,0,0,1-1V18a1.0008,1.0008,0,0,0-.6484-.9365l-.0008,0L53.707,11.707A.9994.9994,0,0,0,53.707,10.293ZM44.74,17.8455,43.3849,19.201,33,15.3066V13.4429ZM33,17.4434l8.831,3.3115L40.4755,22.11,33,19.3071ZM17,44a6.9977,6.9977,0,0,1,8.4364-6.85L17.15,45.4363A6.995,6.995,0,0,1,17,44Zm7,7a7,7,0,0,1-6.0653-3.5206l9.5447-9.5447A6.9945,6.9945,0,0,1,24,51Zm7-12.6444a9.066,9.066,0,0,0-2.067-1.8746L31,34.4141Zm2-8.77V21.4434l5.9219,2.2207Zm9.5323-6.7041,1.3555-1.3555L47,22.6934v1.8637ZM47,18.6929v1.8637l-1.5582-.5843,1.3554-1.3555Z"
       fill="#0d47a1" />
  </g>
  <path
     id="path198"
     d="m 10.509768,53.824808 c -0.418893,-0.255413 -0.5997474,-0.790147 -0.400477,-1.184094 0.04686,-0.09263 1.297803,-1.384854 2.779882,-2.871602 l 2.694688,-2.703177 -0.188814,-0.651557 c -0.420913,-1.452486 -0.453639,-3.036462 -0.0933,-4.516096 1.192114,-4.89515 6.126315,-7.823771 11.010944,-6.535382 l 0.770645,0.203269 1.995683,-1.994577 1.995684,-1.994576 v -9.956423 -9.956422 l 0.161025,-0.20471 c 0.181932,-0.231289 0.530482,-0.432955 0.7483,-0.432955 0.08024,0 3.33498,1.19629 7.232745,2.658423 l 7.086845,2.658423 3.122892,-3.115644 c 2.723278,-2.716958 3.159708,-3.122336 3.410602,-3.167938 0.615151,-0.111809 1.21501,0.488098 1.103033,1.103122 -0.04551,0.249935 -0.418655,0.655248 -2.842045,3.087011 l -2.789662,2.7993 0.214207,0.158101 c 0.451434,0.333193 0.441214,0.222654 0.441214,4.772394 0,3.652443 -0.01532,4.207585 -0.122305,4.433049 -0.162999,0.343494 -0.458251,0.525357 -0.839174,0.516895 -0.20201,-0.0045 -1.484964,-0.451723 -3.665027,-1.277624 l -3.354216,-1.27072 -4.028916,4.021124 -4.028916,4.021124 v 6.255235 c 0,6.871518 -0.0029,6.923088 -0.468863,8.251045 -1.03458,2.948659 -3.501054,5.14022 -6.548004,5.818164 -3.330139,0.740952 -6.906292,-0.568138 -8.992434,-3.29178 l -0.443241,-0.578691 -2.472524,2.463983 c -1.359888,1.355192 -2.548315,2.502329 -2.640949,2.549194 -0.252189,0.127585 -0.573022,0.102702 -0.849518,-0.06589 z m 14.649257,-2.8939 c 2.468738,-0.430512 4.399662,-1.980378 5.365009,-4.306252 0.762671,-1.837551 0.626287,-4.21467 -0.342983,-5.978039 -0.548983,-0.998752 -1.639229,-2.168666 -2.394245,-2.569202 l -0.336275,-0.178393 -4.78871,4.78871 -4.78871,4.788709 0.194333,0.307845 c 1.47928,2.343331 4.362311,3.622567 7.091581,3.146622 z m 0.286758,-13.778927 c 0,-0.194141 -2.051505,-0.218266 -2.900467,-0.03411 -2.156373,0.46776 -3.877107,1.811592 -4.85061,3.788152 -0.517212,1.050127 -0.672488,1.724768 -0.683272,2.968675 -0.005,0.57253 0.01967,1.176964 0.05475,1.343186 l 0.06378,0.302221 4.157911,-4.157376 c 2.28685,-2.286556 4.15791,-4.181394 4.15791,-4.210749 z m 5.628916,-0.7568 c 0,-1.102651 -0.02651,-2.00482 -0.0589,-2.00482 -0.131556,0 -2.130266,2.082235 -2.059117,2.145166 0.04106,0.03631 0.283341,0.223524 0.538412,0.416022 0.255072,0.192497 0.688806,0.594445 0.963855,0.893216 0.27505,0.298771 0.526114,0.545923 0.557921,0.549227 0.03181,0.0033 0.05783,-0.896161 0.05783,-1.998811 z m 4.931915,-9.751191 c 1.630694,-1.631107 2.949079,-2.981292 2.929745,-3.000411 -0.05866,-0.058 -5.823931,-2.207434 -5.920853,-2.207434 -0.06773,0 -0.09021,1.018108 -0.09021,4.086747 0,2.24771 0.02619,4.086747 0.05821,4.086747 0.03201,0 1.392412,-1.334542 3.023106,-2.965649 z M 47.019171,23.622458 46.99759,22.647325 45.493976,22.08091 c -0.826988,-0.311529 -1.539037,-0.566695 -1.582331,-0.567036 -0.04329,-3.09e-4 -0.388145,0.310249 -0.766336,0.6902 -0.598497,0.601283 -0.668247,0.698286 -0.538151,0.748419 1.241691,0.478491 4.328269,1.635759 4.373459,1.639765 0.03307,0.0029 0.05042,-0.433477 0.03855,-0.9698 z m -5.814248,-2.176735 c 0.374675,-0.376419 0.650715,-0.703255 0.613421,-0.726304 -0.120486,-0.07446 -8.73787,-3.292913 -8.816762,-3.292913 -0.04617,0 -0.07628,0.375011 -0.07628,0.950193 v 0.950193 l 3.720482,1.397967 c 2.046265,0.768882 3.755904,1.399608 3.799198,1.401614 0.04329,0.002 0.385268,-0.304331 0.759941,-0.68075 z m 5.831222,-1.824046 c 0,-1.266054 -0.02722,-1.277043 -0.932132,-0.376324 -0.37793,0.376179 -0.687146,0.703182 -0.687146,0.726672 0,0.03992 1.434974,0.601919 1.561446,0.611531 0.03181,0.0024 0.05783,-0.430428 0.05783,-0.961879 z m -2.900379,-1.106799 0.681947,-0.685122 -0.413676,-0.155336 c -7.7574,-2.912903 -11.362276,-4.257553 -11.414093,-4.257553 -0.03555,0 -0.06464,0.429425 -0.06464,0.954276 v 0.954276 l 5.146988,1.933837 c 2.830844,1.06361 5.19976,1.935391 5.264258,1.93729 0.0645,0.0019 0.424147,-0.304851 0.799219,-0.681668 z"
     style="fill:#00ffff;fill-opacity:0.0901961;stroke-width:0.0771084" />
  <path
     id="path200"
     d="m 10.718112,53.889276 c -0.494649,-0.197243 -0.7744137,-0.726118 -0.601035,-1.136213 0.05489,-0.129819 1.308767,-1.46938 2.786404,-2.9768 l 2.686613,-2.740765 -0.21184,-0.790038 c -0.168194,-0.627263 -0.219289,-1.015445 -0.247989,-1.884062 -0.04395,-1.33026 0.05696,-2.102479 0.416305,-3.185494 0.47239,-1.423737 1.159751,-2.50731 2.278304,-3.591571 2.206916,-2.139259 5.196465,-2.938184 8.346299,-2.230461 l 0.918161,0.206298 1.992682,-1.991577 1.992683,-1.991577 v -9.955562 -9.955561 l 0.182176,-0.196572 c 0.100198,-0.108115 0.287309,-0.250938 0.415803,-0.317385 0.222238,-0.114923 0.270674,-0.108211 0.993726,0.137711 0.856255,0.291227 3.656835,1.328982 9.579331,3.549624 2.221178,0.832832 4.049726,1.504097 4.063439,1.491701 0.01371,-0.0124 1.076385,-1.065058 2.361494,-2.339248 1.285109,-1.27419 2.710058,-2.670817 3.166554,-3.103614 0.80452,-0.762754 0.840846,-0.786905 1.183614,-0.786905 0.299347,0 0.39386,0.04024 0.615791,0.262168 0.22153,0.221532 0.262168,0.316697 0.262168,0.61395 0,0.337329 -0.0291,0.382784 -0.708301,1.106506 -0.389566,0.415099 -1.647397,1.702184 -2.795181,2.860188 l -2.086879,2.105463 0.207178,0.169236 c 0.386843,0.315997 0.395102,0.394383 0.428104,4.063212 0.03611,4.013816 -0.02099,5.074505 -0.288494,5.359249 -0.413573,0.440227 -0.526543,0.411652 -4.932948,-1.247762 l -2.735557,-1.030188 -4.02248,4.021933 -4.02248,4.021932 -0.03856,6.331394 c -0.02614,4.292475 -0.06771,6.514188 -0.12909,6.899018 -0.320688,2.010791 -1.663287,4.170583 -3.411432,5.48785 -0.791212,0.596196 -2.120147,1.245147 -3.107249,1.517346 -0.712139,0.196375 -0.880134,0.212712 -2.197591,0.213703 -1.232637,9.26e-4 -1.520197,-0.02276 -2.115898,-0.174286 -1.978828,-0.503354 -3.707902,-1.620517 -5.00737,-3.235285 l -0.449034,-0.557988 -2.503273,2.447144 c -1.3768,1.34593 -2.579056,2.489288 -2.67168,2.540797 -0.20164,0.112135 -0.335499,0.114957 -0.592464,0.01249 z M 25.86988,50.780271 c 1.682655,-0.486632 3.007294,-1.435677 3.960293,-2.837377 0.349366,-0.513856 0.832773,-1.554561 0.976347,-2.10193 0.264182,-1.00718 0.265111,-2.55903 0.0022,-3.624097 -0.176024,-0.713001 -0.707646,-1.806559 -1.180791,-2.428915 -0.503919,-0.662834 -1.408997,-1.508065 -1.83806,-1.716519 l -0.344398,-0.167321 -4.794021,4.794021 -4.794022,4.794022 0.362435,0.530442 c 0.994873,1.456047 2.719628,2.566935 4.514392,2.907648 0.890757,0.169099 2.258589,0.103677 3.135654,-0.149974 z m -0.487741,-13.68168 c -0.178302,-0.112138 -1.413729,-0.161481 -2.144342,-0.08564 -2.49687,0.259173 -4.557226,1.758798 -5.665378,4.123535 -0.445862,0.951444 -0.558517,1.513086 -0.5647,2.815325 -0.009,1.902123 -0.522894,2.214041 4.29851,-2.609222 3.002303,-3.003461 4.149348,-4.197807 4.07591,-4.243994 z m 5.69256,-0.70341 c 0,-1.102651 -0.02651,-2.00482 -0.0589,-2.00482 -0.0324,0 -0.526855,0.471003 -1.098795,1.046672 l -1.039893,1.046671 0.26988,0.20401 c 0.148434,0.112206 0.616867,0.542937 1.040964,0.957182 0.424096,0.414245 0.797108,0.753607 0.828915,0.754138 0.03181,5.31e-4 0.05783,-0.901203 0.05783,-2.003853 z m 4.931915,-9.751191 c 1.630694,-1.631107 2.946626,-2.983923 2.924291,-3.006257 -0.09146,-0.09146 -5.759562,-2.201588 -5.913774,-2.201588 -0.06988,0 -0.09183,0.976873 -0.09183,4.086747 0,2.24771 0.02619,4.086747 0.05821,4.086747 0.03201,0 1.392412,-1.334542 3.023106,-2.965649 z m 11.012557,-3.029532 -0.02158,-0.983133 -1.46506,-0.555858 c -0.805783,-0.305723 -1.517832,-0.557289 -1.58233,-0.559036 -0.0645,-0.0018 -0.426142,0.30713 -0.80365,0.686397 -0.674342,0.67748 -0.683104,0.691049 -0.499597,0.773711 0.379292,0.170854 4.199811,1.605954 4.29511,1.613371 0.07646,0.006 0.09383,-0.213808 0.07711,-0.975452 z m -5.812616,-2.170374 c 0.609485,-0.612321 0.667309,-0.694289 0.538151,-0.762851 -0.323335,-0.171638 -8.611567,-3.254727 -8.749645,-3.254727 -0.03837,0 -0.06976,0.430023 -0.06976,0.955606 0,0.838282 0.01657,0.962184 0.13494,1.009189 0.246663,0.09795 6.839339,2.563427 7.074699,2.645741 0.127229,0.0445 0.266747,0.08364 0.310041,0.08699 0.04329,0.0033 0.386002,-0.302628 0.761574,-0.679949 z m 5.82959,-1.822407 c 0,-1.266054 -0.02722,-1.277043 -0.932132,-0.376324 -0.37793,0.376179 -0.687146,0.706133 -0.687146,0.733232 0,0.05372 1.36615,0.595696 1.522892,0.604161 0.07226,0.0039 0.09639,-0.236679 0.09639,-0.961069 z m -2.89504,-1.112164 0.687288,-0.690486 -0.226245,-0.08759 c -1.550689,-0.600337 -11.533683,-4.31457 -11.596559,-4.31457 -0.05844,0 -0.07817,0.302707 -0.06332,0.971274 l 0.02158,0.971273 4.47229,1.675773 c 5.367144,2.011076 5.749848,2.151098 5.900402,2.158808 0.0645,0.0033 0.42655,-0.304714 0.804558,-0.684482 z"
     style="fill:#00ffff;fill-opacity:0.0901961;stroke-width:0.0771084" />
  <path
     id="path202"
     d="m 10.545548,53.77809 c -0.252655,-0.137088 -0.444343,-0.479777 -0.444343,-0.794368 0,-0.275857 0.282083,-0.588342 3.333241,-3.692492 1.177802,-1.198257 2.141458,-2.230985 2.141458,-2.294951 0,-0.06397 -0.06987,-0.36743 -0.155255,-0.674364 -0.198757,-0.714424 -0.333094,-2.231857 -0.267848,-3.025529 0.314634,-3.827292 2.877136,-6.877903 6.654487,-7.92204 0.503899,-0.139289 0.812241,-0.164626 2.057772,-0.169092 1.268757,-0.0045 1.586915,0.02004 2.374489,0.183548 l 0.909428,0.188802 1.962861,-1.961729 1.962861,-1.961729 v -9.997398 -9.997399 l 0.271293,-0.238199 c 0.50207,-0.440823 0.378416,-0.462949 3.198586,0.572329 0.954217,0.35029 3.938314,1.46042 6.631326,2.466954 2.693012,1.006533 4.955857,1.846492 5.028544,1.866574 0.09419,0.02602 1.017328,-0.840753 3.213381,-3.017202 1.694671,-1.679544 3.17288,-3.088565 3.284908,-3.131158 0.375636,-0.142817 0.583371,-0.0914 0.896696,0.22192 0.309994,0.309994 0.364543,0.52157 0.227442,0.882172 -0.03956,0.104039 -1.299992,1.444801 -2.80097,2.979471 l -2.729051,2.790307 0.248594,0.248594 c 0.213486,0.213485 0.254894,0.318846 0.293198,0.746031 0.07742,0.863408 0.110888,5.373885 0.05062,6.822356 -0.07281,1.750054 -0.158662,1.964237 -0.787322,1.964237 -0.38108,0 -0.958346,-0.192037 -4.095054,-1.362284 l -2.990698,-1.115773 -4.03553,3.995655 -4.035529,3.995655 -0.05407,5.860241 c -0.06402,6.938352 -0.09332,7.532586 -0.419509,8.506186 -0.487765,1.455882 -1.110866,2.440584 -2.277908,3.599838 -0.931905,0.925686 -1.58353,1.364192 -2.818201,1.896488 -1.153627,0.497356 -1.755474,0.608369 -3.301591,0.608996 -1.5315,6.16e-4 -2.166814,-0.100669 -3.194937,-0.509378 -1.587603,-0.631117 -3.010833,-1.679641 -3.95362,-2.912717 -0.212048,-0.277339 -0.408229,-0.505522 -0.435957,-0.507074 -0.02773,-0.0016 -1.203745,1.12489 -2.613371,2.503203 -2.418681,2.364954 -2.578616,2.505851 -2.841151,2.502937 -0.153007,-0.0017 -0.373181,-0.05463 -0.489274,-0.117618 z m 15.247223,-2.957329 c 1.238028,-0.3292 2.585969,-1.133052 3.389857,-2.021556 0.803941,-0.888563 1.478231,-2.178016 1.707144,-3.264595 0.135776,-0.644485 0.152819,-2.136023 0.03228,-2.82561 -0.170988,-0.978251 -0.582676,-1.942708 -1.197504,-2.805386 -0.422972,-0.59348 -1.434007,-1.569902 -1.915073,-1.849509 l -0.373654,-0.217177 -4.773334,4.772869 c -2.625335,2.625078 -4.773335,4.820616 -4.773335,4.878973 0,0.32373 1.320155,1.781202 2.081927,2.29848 0.764648,0.519231 1.771898,0.946931 2.698796,1.145966 0.728263,0.156382 2.3286,0.09875 3.122891,-0.112455 z M 22.290479,40.392976 c 2.354003,-2.396309 3.154666,-3.256558 3.076151,-3.305083 -0.385462,-0.238229 -2.452741,-0.141425 -3.429281,0.160582 -1.482367,0.45844 -2.874146,1.474124 -3.735512,2.726076 -0.345438,0.502077 -0.90606,1.702335 -1.047352,2.242316 -0.164845,0.630001 -0.24336,2.613814 -0.11843,2.992356 l 0.09442,0.286091 0.988857,-0.931427 c 0.543871,-0.512284 2.420888,-2.389194 4.171147,-4.170911 z m 8.78422,-3.997795 c 0,-1.104343 -0.03051,-2.00482 -0.06792,-2.00482 -0.09316,0 -2.098789,2.022122 -2.073131,2.090175 0.03226,0.08557 2.018481,1.912543 2.08322,1.916198 0.03181,0.0018 0.05783,-0.898903 0.05783,-2.001553 z m 4.898864,-9.710025 c 1.608136,-1.608465 2.935186,-2.958391 2.949,-2.999833 0.01381,-0.04144 -0.349677,-0.222068 -0.807759,-0.401389 -1.530184,-0.599006 -4.960476,-1.847789 -5.075705,-1.847789 -0.09889,0 -0.113798,0.535266 -0.113798,4.086747 0,2.24771 0.02799,4.086747 0.06219,4.086747 0.0342,0 1.377937,-1.316018 2.986072,-2.924483 z m 11.062582,-3.077132 v -0.989566 l -1.484338,-0.553407 c -0.816385,-0.304375 -1.532787,-0.553046 -1.592004,-0.552603 -0.113465,8.48e-4 -0.667368,0.493381 -1.178669,1.048077 l -0.304191,0.330007 0.177355,0.09492 c 0.25894,0.13858 4.171779,1.609395 4.285461,1.61088 0.07217,9.41e-4 0.09639,-0.247387 0.09639,-0.988306 z m -6.148249,-1.836536 c 0.210874,-0.197248 0.520523,-0.507385 0.688109,-0.689196 l 0.304704,-0.330563 -0.217463,-0.112032 C 41.21934,20.411006 33.1762,17.426506 33.003791,17.426506 c -0.05615,0 -0.0761,0.316782 -0.06152,0.97701 l 0.02158,0.97701 3.662651,1.372486 c 2.014458,0.754867 3.7111,1.373526 3.770317,1.374798 0.05922,0.0013 0.280199,-0.159074 0.491073,-0.356322 z m 6.131275,-2.165723 c -0.01818,-0.8273 -0.041,-0.98591 -0.144732,-1.005794 -0.115327,-0.02211 -1.457572,1.243596 -1.457572,1.374453 0,0.07182 1.299308,0.604809 1.486642,0.609841 0.125691,0.0034 0.135427,-0.07899 0.115662,-0.9785 z m -2.89387,-1.043278 c 0.371085,-0.349496 0.67436,-0.669995 0.673947,-0.71222 -3.85e-4,-0.04222 -1.1021,-0.488486 -2.448193,-0.99169 -5.539317,-2.070741 -9.016858,-3.355802 -9.217524,-3.406166 l -0.212971,-0.05345 0.02165,0.991015 0.02165,0.991016 5.089157,1.90704 c 2.799036,1.048871 5.158554,1.907684 5.243374,1.908472 0.08843,8.25e-4 0.442028,-0.269636 0.828915,-0.634015 z"
     style="fill:#00ffff;fill-opacity:0.0901961;stroke-width:0.0771084" />
  <path
     id="path204"
     d="m 10.640964,53.765629 c -0.164826,-0.0835 -0.326423,-0.252505 -0.415139,-0.434178 -0.2461808,-0.504133 -0.4584464,-0.247115 3.949678,-4.782388 1.588916,-1.634747 1.471155,-1.394131 1.212176,-2.476774 -0.199694,-0.834804 -0.247512,-2.839529 -0.08789,-3.684804 0.356794,-1.889429 1.208478,-3.468403 2.575071,-4.774038 0.986103,-0.942118 2.182068,-1.651744 3.561288,-2.113094 0.645342,-0.215868 0.683286,-0.219262 2.467469,-0.220742 1.562083,-0.0013 1.909563,0.02065 2.518948,0.159117 l 0.7069,0.16062 1.972618,-1.973714 1.972619,-1.973713 v -9.997795 -9.997794 l 0.300252,-0.237804 c 0.537156,-0.425436 0.06441,-0.570113 8.89466,2.722102 3.254792,1.213497 5.951064,2.206358 5.991716,2.206358 0.04065,0 1.263906,-1.16526 2.718341,-2.589466 3.49202,-3.419442 3.705417,-3.610052 4.041622,-3.610052 0.386139,0 0.834179,0.457084 0.823326,0.839946 -0.01,0.351225 -0.330878,0.713245 -3.331594,3.758252 l -2.267699,2.301172 0.254127,0.262193 c 0.239989,0.247605 0.258182,0.306428 0.327011,1.057302 0.102696,1.120343 0.03239,7.573121 -0.0866,7.947647 -0.123077,0.387409 -0.384305,0.553164 -0.773657,0.490904 -0.4088,-0.06537 -1.388111,-0.403708 -4.3931,-1.517751 l -2.546528,-0.94408 -2.065097,2.011328 c -1.135804,1.106231 -2.957335,2.907116 -4.047848,4.001967 l -1.98275,1.990638 -0.08033,6.284337 c -0.04418,3.456386 -0.115577,6.575373 -0.158661,6.931084 -0.130152,1.074561 -0.619783,2.308033 -1.33491,3.362892 -0.414342,0.611182 -1.571331,1.801233 -2.215376,2.278683 -0.562969,0.417347 -1.826835,1.04723 -2.616312,1.303913 -1.238449,0.402659 -3.880586,0.385491 -5.128205,-0.03332 -0.69617,-0.233696 -1.656961,-0.706737 -2.371168,-1.167431 -0.595435,-0.384081 -1.668891,-1.386718 -2.144014,-2.002565 -0.177295,-0.229808 -0.352425,-0.417832 -0.389177,-0.417832 -0.03675,0 -1.116869,1.019569 -2.400261,2.265708 -1.283392,1.246139 -2.439867,2.354247 -2.569946,2.462462 -0.328056,0.272919 -0.561529,0.312833 -0.881566,0.150712 z M 25.754217,50.85105 c 0.669935,-0.17412 1.833146,-0.725922 2.417466,-1.146794 1.277388,-0.920072 2.275855,-2.397656 2.678411,-3.963651 0.202152,-0.786398 0.215205,-2.501628 0.02539,-3.336189 -0.172781,-0.759661 -0.550228,-1.637549 -0.985696,-2.292586 -0.397901,-0.598529 -1.71921,-1.901973 -2.160416,-2.131207 l -0.287739,-0.149498 -4.776237,4.77577 c -2.62693,2.626674 -4.776236,4.832782 -4.776236,4.902462 0,0.19544 0.61052,0.971264 1.242044,1.578338 0.929104,0.893134 1.880176,1.421816 3.191691,1.7742 0.622806,0.167338 0.808637,0.183023 1.812048,0.152941 0.695384,-0.02085 1.307553,-0.08277 1.619277,-0.163786 z M 21.667301,41.0424 c 2.080595,-2.103382 3.77068,-3.860987 3.755746,-3.90579 -0.08623,-0.258693 -2.100615,-0.242764 -3.194682,0.02526 -1.261836,0.309127 -2.377184,0.974305 -3.361887,2.004981 -0.930263,0.973696 -1.656075,2.4006 -1.819014,3.576076 -0.105177,0.758767 -0.108691,2.289494 -0.0059,2.559914 l 0.07773,0.20445 0.382542,-0.320282 c 0.210398,-0.176156 2.084847,-2.041231 4.165441,-4.144611 z m 9.407398,-4.647219 c 0,-1.501072 -0.02311,-2.00482 -0.09197,-2.00482 -0.09447,0 -2.067069,1.987235 -2.067069,2.082409 0,0.07155 2.019593,1.92723 2.097459,1.92723 0.03387,0 0.06158,-0.902169 0.06158,-2.004819 z m 4.931362,-9.715113 c 1.613535,-1.611264 2.933698,-2.961279 2.933698,-3.000033 0,-0.09364 -0.758083,-0.404426 -3.102863,-1.272058 -2.376878,-0.879509 -2.731976,-0.996634 -2.832754,-0.934349 -0.104523,0.0646 -0.109791,8.136011 -0.0053,8.136011 0.04044,0 1.393695,-1.318307 3.007228,-2.929571 z M 47.036145,23.601931 V 22.60627 L 46.4,22.361155 c -1.250028,-0.481652 -2.309148,-0.847902 -2.451963,-0.847902 -0.152758,0 -1.46129,1.224056 -1.46129,1.366954 0,0.04566 0.09542,0.118517 0.212048,0.161901 0.116627,0.04339 1.079518,0.409813 2.139759,0.814284 1.060241,0.404472 1.988434,0.736707 2.062651,0.738301 0.121696,0.0026 0.13494,-0.09482 0.13494,-0.992762 z m -6.073826,-1.858688 c 0.454953,-0.405493 0.950238,-0.9841 0.892128,-1.042209 -0.121575,-0.121575 -8.613495,-3.274528 -8.81936,-3.274528 -0.09627,0 -0.110973,0.155792 -0.09281,0.983133 l 0.02158,0.983132 3.624097,1.363621 c 1.993253,0.749991 3.695242,1.365895 3.782198,1.368675 0.08696,0.0028 0.353432,-0.169041 0.592169,-0.381824 z m 6.056852,-2.137478 c -0.0177,-0.805337 -0.04265,-0.986226 -0.138622,-1.004617 -0.127399,-0.02441 -1.465346,1.200063 -1.464314,1.340129 3.86e-4,0.04722 0.200151,0.171777 0.444006,0.276793 0.243855,0.105016 0.53012,0.228851 0.636145,0.275191 0.106024,0.04634 0.271879,0.0866 0.368569,0.08947 0.175154,0.0052 0.175718,0.0016 0.154216,-0.976968 z M 44.133244,18.576178 C 44.49996,18.233076 44.8,17.911045 44.8,17.860552 c 0,-0.05049 -0.112771,-0.135574 -0.250602,-0.189074 -2.524355,-0.979834 -11.391013,-4.254611 -11.519617,-4.254611 -0.08244,0 -0.10448,0.207462 -0.10448,0.983458 v 0.983457 l 3.373494,1.265989 c 5.214297,1.956796 6.829422,2.54407 7.005533,2.547277 0.09903,0.0018 0.421752,-0.239924 0.828916,-0.62087 z"
     style="fill:#00ffff;fill-opacity:0.0901961;stroke-width:0.0771084" />
  <path
     id="path206"
     d="m 10.499956,53.628198 c -0.126472,-0.106419 -0.265388,-0.29515 -0.308702,-0.419403 -0.06769,-0.194181 -0.04783,-0.272604 0.14143,-0.558318 0.121102,-0.182823 1.282466,-1.431315 2.580811,-2.774426 1.298344,-1.343112 2.43368,-2.534896 2.522969,-2.648408 l 0.162344,-0.206387 -0.178074,-0.89858 c -0.145872,-0.736089 -0.177664,-1.142592 -0.175808,-2.247977 0.002,-1.210543 0.02331,-1.428743 0.206795,-2.120482 0.275989,-1.040493 0.980087,-2.447156 1.631968,-3.260385 1.038482,-1.295519 2.536916,-2.331883 4.275347,-2.956963 0.466902,-0.167882 0.63314,-0.181693 2.428916,-0.201794 1.662438,-0.01861 2.023209,-0.0012 2.621687,0.126254 l 0.693975,0.147831 1.985543,-1.977518 1.985542,-1.977518 2e-6,-9.986098 2e-6,-9.986098 0.285901,-0.228121 c 0.222611,-0.177622 0.35531,-0.2251 0.599448,-0.214474 0.428385,0.01864 1.759358,0.482074 7.249587,2.524224 5.821027,2.165195 6.963221,2.583431 7.055296,2.583431 0.03991,0 1.399087,-1.288646 3.020385,-2.863658 1.6213,-1.575012 3.084905,-2.962964 3.252457,-3.084337 0.413483,-0.299526 0.692037,-0.288215 1.021741,0.04149 0.296558,0.296558 0.340209,0.590685 0.133061,0.896578 -0.223222,0.329628 -0.681812,0.818104 -3.095855,3.297616 l -2.349277,2.41299 0.210166,0.219365 c 0.115592,0.120652 0.241114,0.353361 0.278938,0.517132 0.206091,0.892322 0.137046,8.212607 -0.08187,8.679468 -0.142608,0.304135 -0.449073,0.385094 -0.956967,0.252804 -0.49007,-0.127647 -2.384892,-0.798108 -4.820281,-1.705602 -0.951386,-0.354512 -1.779046,-0.644568 -1.839245,-0.644568 -0.0602,0 -1.906284,1.789274 -4.10241,3.976164 l -3.992957,3.976164 -0.04569,2.404559 c -0.02513,1.322507 -0.08064,4.312993 -0.123362,6.645523 -0.06895,3.764689 -0.09447,4.31024 -0.227281,4.857831 -0.210439,0.867671 -0.612642,1.778174 -1.126888,2.551038 -0.503838,0.757221 -1.802581,2.094797 -2.453476,2.526837 -0.626843,0.416075 -2.082107,1.096484 -2.672151,1.249366 -1.028473,0.266479 -3.507317,0.265681 -4.538252,-0.0015 -1.638687,-0.42463 -3.594294,-1.709115 -4.746773,-3.117787 -0.246474,-0.301266 -0.480439,-0.547755 -0.519921,-0.547755 -0.03948,0 -0.981087,0.879454 -2.092456,1.954342 -2.994208,2.895923 -3.090883,2.980598 -3.403026,2.980598 -0.168983,0 -0.346206,-0.06947 -0.493592,-0.193489 z m 15.291948,-2.77307 c 0.561022,-0.15236 1.743114,-0.70404 2.250753,-1.050424 0.95785,-0.653578 1.797587,-1.65155 2.334237,-2.774082 0.48544,-1.015419 0.629885,-1.691927 0.632677,-2.963152 0.0036,-1.650081 -0.298907,-2.732707 -1.097131,-3.926153 -0.413634,-0.618432 -1.732492,-1.93155 -2.173661,-2.164199 l -0.290136,-0.153002 -4.741867,4.740954 c -2.608027,2.607525 -4.760834,4.800366 -4.784016,4.872981 -0.07671,0.240284 0.176895,0.598478 1.071212,1.513004 0.92825,0.949228 2.013402,1.571658 3.394458,1.947023 0.468046,0.127213 0.731873,0.144759 1.74651,0.116154 0.762934,-0.02151 1.362188,-0.07905 1.656964,-0.159104 z M 19.87767,42.853012 c 4.085595,-4.073024 5.609891,-5.675812 5.501212,-5.784491 -0.131157,-0.131157 -1.557696,-0.167642 -2.372441,-0.06068 -0.851447,0.111784 -1.770636,0.422258 -2.551294,0.861753 -0.826931,0.465544 -2.033005,1.661065 -2.518707,2.496668 -0.743563,1.27923 -0.968327,2.147076 -0.971057,3.749398 -0.0017,0.981824 0.04982,1.378313 0.179015,1.378313 0.04629,0 1.276259,-1.188434 2.733272,-2.640964 z m 11.197029,-6.457831 c 0,-1.479156 -0.02365,-2.00482 -0.0902,-2.00482 -0.115544,0 -2.068834,1.949925 -2.068834,2.065268 0,0.09811 1.985184,1.944371 2.090677,1.944371 0.03799,0 0.06836,-0.890742 0.06836,-2.004819 z m 4.945019,-9.705583 c 1.606022,-1.606023 2.920041,-2.954537 2.920041,-2.996699 0,-0.13379 -0.993755,-0.537087 -4.153916,-1.685785 -0.863931,-0.314033 -1.635979,-0.570969 -1.715663,-0.570969 -0.139944,0 -0.144879,0.139203 -0.144879,4.086747 0,2.988063 0.02344,4.086747 0.08719,4.086747 0.04795,0 1.401206,-1.314019 3.007229,-2.920041 z m 11.016427,-3.096326 v -1.004318 l -0.212049,-0.08344 c -0.863206,-0.339676 -2.567852,-0.938008 -2.762259,-0.969556 -0.212383,-0.03446 -0.307541,0.02798 -0.906196,0.594656 -0.367892,0.34824 -0.668894,0.678797 -0.668894,0.73457 0,0.05804 0.387478,0.252246 0.906024,0.454109 1.782106,0.693748 3.375757,1.273236 3.508434,1.275746 0.121738,0.0023 0.13494,-0.0957 0.13494,-1.001765 z m -5.811773,-2.108659 c 0.355029,-0.355029 0.645508,-0.682037 0.645508,-0.726683 0,-0.04465 -0.355663,-0.219708 -0.790362,-0.389024 -2.82322,-1.099656 -7.854438,-2.9424 -8.033591,-2.9424 -0.103124,0 -0.120626,0.142701 -0.120626,0.983525 v 0.983525 l 0.481928,0.187061 c 2.158088,0.837665 6.841098,2.544181 6.988227,2.54655 0.129219,0.0021 0.374126,-0.187765 0.828916,-0.642554 z m 5.794799,-1.878848 c -0.01761,-0.801333 -0.04294,-0.98628 -0.137573,-1.004415 -0.14021,-0.02687 -1.464731,1.182574 -1.464731,1.337471 0,0.06015 0.009,0.109372 0.02007,0.109372 0.01104,0 0.297304,0.121022 0.636145,0.268938 0.338842,0.147916 0.695184,0.269362 0.791874,0.269879 0.174962,9.41e-4 0.175694,-0.0037 0.154215,-0.981245 z M 44.133244,18.576178 C 44.49996,18.233076 44.8,17.908253 44.8,17.854349 c 0,-0.111549 0.06412,-0.08558 -3.662651,-1.483196 -4.32829,-1.623194 -7.978086,-2.954286 -8.100526,-2.954286 -0.09152,0 -0.111522,0.178235 -0.111522,0.993862 v 0.993862 l 4.028916,1.504984 c 5.957676,2.225465 6.093699,2.274664 6.311557,2.282867 0.150083,0.0057 0.368906,-0.149804 0.86747,-0.616264 z"
     style="fill:#00ffff;fill-opacity:0.0901961;stroke-width:0.0771084" />
  <path
     id="path208"
     d="m 10.596265,53.676301 c -0.130609,-0.07964 -0.283319,-0.255497 -0.339356,-0.390782 -0.08704,-0.210122 -0.08424,-0.281694 0.01917,-0.491048 0.123654,-0.250334 1.172835,-1.385643 3.825027,-4.139025 l 1.493876,-1.550873 -0.04058,-0.323371 c -0.02232,-0.177854 -0.0995,-0.653009 -0.171512,-1.055901 -0.184951,-1.034718 -0.129186,-3.275989 0.100222,-4.028023 0.805423,-2.640301 2.524992,-4.630629 4.98102,-5.765317 1.140898,-0.527096 1.293885,-0.551649 3.501745,-0.561996 1.603447,-0.0075 2.089508,0.01542 2.549747,0.120279 l 0.568641,0.129561 1.992287,-1.944842 1.992287,-1.944843 0.0057,-10.024096 0.0057,-10.024096 0.279486,-0.212048 c 0.184754,-0.140175 0.373287,-0.211988 0.556226,-0.211871 0.152207,10e-5 0.835797,0.18938 1.519088,0.420628 0.979273,0.331418 8.876551,3.233557 12.084722,4.440966 0.3323,0.125062 0.653639,0.227385 0.714089,0.227385 0.06045,0 1.072425,-0.930136 2.248833,-2.066969 4.271125,-4.12744 4.312286,-4.163212 4.683218,-4.070113 0.217689,0.05464 0.655708,0.541585 0.655708,0.728955 0,0.33875 -0.701517,1.111754 -4.915196,5.416077 l -0.649401,0.663372 0.256997,0.364486 0.256997,0.364486 0.02395,3.367323 c 0.01317,1.852027 -0.0094,3.817014 -0.05012,4.366635 -0.0659,0.889092 -0.09287,1.014538 -0.244541,1.137349 -0.09376,0.07592 -0.280839,0.138038 -0.415738,0.138038 -0.297859,0 -1.496882,-0.400997 -4.582669,-1.532609 -1.286449,-0.471764 -2.394214,-0.857753 -2.461699,-0.857753 -0.06748,0 -1.921843,1.795663 -4.120795,3.990362 l -3.998094,3.990361 -0.07668,4.549398 c -0.110066,6.530439 -0.197691,8.924219 -0.346874,9.476056 -0.187693,0.694289 -0.660989,1.735615 -1.065236,2.34369 -0.46617,0.701221 -1.709123,2.009309 -2.330756,2.452897 -0.634772,0.452965 -2.263987,1.227792 -2.932259,1.394533 -0.422405,0.105395 -0.870108,0.131777 -2.18885,0.128983 -1.938276,-0.0041 -2.3509,-0.08462 -3.648328,-0.711834 -1.11132,-0.537248 -2.017756,-1.213595 -2.987716,-2.229317 -0.608044,-0.636731 -0.866548,-0.858756 -0.946056,-0.812556 -0.06017,0.03496 -1.128694,1.041314 -2.374495,2.236332 -1.2458,1.195018 -2.399984,2.279355 -2.564851,2.409638 -0.34634,0.273688 -0.531963,0.293367 -0.863012,0.09149 z m 15.350723,-2.863542 c 0.650662,-0.203501 1.797602,-0.766687 2.274699,-1.116954 0.437883,-0.321477 1.285829,-1.202757 1.594567,-1.657251 0.324407,-0.477561 0.75542,-1.350076 0.945173,-1.913349 0.342963,-1.018071 0.342251,-3.099281 -0.0014,-4.22515 -0.311859,-1.021576 -0.806616,-1.830313 -1.67484,-2.737722 -0.793381,-0.829183 -1.388852,-1.302092 -1.639555,-1.302092 -0.15618,0 -9.507311,9.43693 -9.540187,9.627721 -0.05455,0.316537 1.116271,1.638431 2.026415,2.287896 0.609459,0.434901 1.596931,0.90126 2.352519,1.111037 0.507752,0.14097 0.73355,0.156541 1.850603,0.12762 1.027822,-0.02661 1.376002,-0.06538 1.812048,-0.201756 z m -4.598946,-9.44314 c 2.253758,-2.268397 4.097741,-4.160341 4.097741,-4.204319 0,-0.187274 -0.44726,-0.24574 -1.580723,-0.206631 -0.938862,0.03239 -1.284332,0.0776 -1.834918,0.240118 -1.185766,0.350001 -1.974101,0.812 -2.896389,1.697413 -0.920894,0.884074 -1.560923,1.904083 -1.938481,3.089342 -0.136245,0.427711 -0.180178,0.790345 -0.211633,1.746889 -0.0423,1.286426 0.0023,1.761545 0.165487,1.761545 0.05565,0 1.945158,-1.855961 4.198916,-4.124357 z m 9.726657,-4.974438 c 0,-1.466834 -0.02395,-2.00482 -0.08924,-2.00482 -0.102614,0 -1.889094,1.740422 -2.005097,1.953403 -0.05784,0.106194 -0.0419,0.180864 0.0641,0.300196 0.278737,0.313817 1.886485,1.75604 1.957583,1.75604 0.04361,0 0.07266,-0.801523 0.07266,-2.004819 z m 4.945622,-9.697125 c 1.605691,-1.601371 2.919438,-2.955856 2.919438,-3.00997 0,-0.120128 -0.32658,-0.265014 -2.159036,-0.957841 -2.041777,-0.77197 -3.53796,-1.2941 -3.708285,-1.2941 -0.142926,0 -0.147137,0.116958 -0.147137,4.086747 0,3.004606 0.02325,4.086747 0.08779,4.086747 0.04828,0 1.401538,-1.310212 3.007229,-2.911583 z m 11.015824,-3.122584 v -1.022119 l -0.597591,-0.21866 c -1.323548,-0.484291 -2.346027,-0.82144 -2.491203,-0.82144 -0.169916,0 -1.460604,1.195451 -1.460604,1.352829 0,0.121918 2.03399,0.945746 4.048193,1.639641 0.512455,0.176542 0.501205,0.197423 0.501205,-0.930251 z M 41.14227,21.575664 c 0.66621,-0.632835 0.79589,-0.819503 0.639185,-0.92008 -0.374604,-0.240431 -8.466472,-3.229078 -8.742844,-3.229078 -0.0938,0 -0.11331,0.170815 -0.11331,0.992252 v 0.992252 l 1.754217,0.66312 c 3.266185,1.234665 5.531783,2.049813 5.705792,2.052908 0.111945,0.002 0.37983,-0.193138 0.75696,-0.551374 z m 5.876901,-1.969899 c -0.01798,-0.818147 -0.04171,-0.986045 -0.14211,-1.005288 -0.159424,-0.03056 -1.474307,1.202333 -1.444572,1.354492 0.02755,0.140982 1.091021,0.619716 1.393911,0.627485 l 0.214352,0.0055 z M 44.139454,18.574739 C 44.502755,18.230845 44.8,17.903837 44.8,17.848056 c 0,-0.117919 -0.446611,-0.296595 -4.781124,-1.912792 -4.27648,-1.594558 -6.837135,-2.518397 -6.980382,-2.518397 -0.100597,0 -0.114548,0.146684 -0.09615,1.01105 l 0.02152,1.011049 2.775904,1.03677 c 5.791954,2.163232 7.331562,2.719594 7.532226,2.721893 0.154835,0.0018 0.373204,-0.155027 0.867469,-0.62289 z"
     style="fill:#00ffff;fill-opacity:0.0901961;stroke-width:0.0771084" />
  <path
     id="path210"
     d="m 10.636753,53.647783 c -0.38398,-0.258486 -0.497525,-0.529256 -0.345344,-0.823542 0.14161,-0.273844 1.242154,-1.474203 3.574727,-3.89894 1.285758,-1.336561 1.706511,-1.820986 1.70782,-1.966265 9.55e-4,-0.106024 -0.04896,-0.480816 -0.110913,-0.832872 -0.279858,-1.590223 -0.212583,-3.680464 0.153564,-4.771196 0.6096,-1.815966 1.868757,-3.517165 3.372875,-4.55696 0.79457,-0.549287 2.064798,-1.152044 2.716542,-1.289075 0.781553,-0.164322 3.992034,-0.160959 4.795605,0.005 l 0.586693,0.121185 0.508851,-0.486682 c 0.279868,-0.267675 1.176803,-1.145971 1.993188,-1.951769 L 31.074699,31.7316 v -9.992119 -9.99212 l 0.176811,-0.166105 c 0.09725,-0.09136 0.284067,-0.203496 0.415158,-0.249194 0.419846,-0.146359 0.94351,0.02728 8.425834,2.793896 2.525509,0.933816 4.94131,1.822949 5.368446,1.97585 l 0.77661,0.278003 0.224167,-0.176329 c 0.123291,-0.09698 1.352612,-1.261293 2.731823,-2.587359 2.828549,-2.719556 3.433536,-3.272296 3.687894,-3.369402 0.242472,-0.09257 0.572755,0.08771 0.782526,0.427129 0.151607,0.245304 0.15608,0.286372 0.05292,0.485865 -0.180059,0.348197 -1.122756,1.388705 -3.061915,3.37961 -0.993728,1.020245 -1.943272,1.999801 -2.110099,2.176792 l -0.30332,0.321802 0.26181,0.364563 0.261809,0.364562 0.003,3.742983 c 0.0031,3.874999 -0.04371,4.858146 -0.240449,5.054892 -0.320924,0.320924 -0.496714,0.274891 -4.597171,-1.203826 -1.517253,-0.547154 -2.815767,-0.994828 -2.885582,-0.994828 -0.06981,0 -1.921818,1.790826 -4.11556,3.979612 l -3.988624,3.979612 -0.04411,1.167376 c -0.02426,0.642057 -0.08147,3.236021 -0.127136,5.764364 -0.09214,5.101808 -0.168082,6.678886 -0.352137,7.312953 -0.181404,0.62494 -0.809515,1.910567 -1.150624,2.355119 -1.114847,1.452927 -1.988075,2.203204 -3.353476,2.881299 -1.659784,0.824296 -1.639544,0.820081 -3.93253,0.818851 -1.955286,-10e-4 -1.969697,-0.0023 -2.58092,-0.217231 -1.507248,-0.530106 -2.756998,-1.358074 -4.066459,-2.694058 -0.454131,-0.463328 -0.857859,-0.830366 -0.897175,-0.815638 -0.03931,0.01473 -1.003657,0.913708 -2.142982,1.997735 -2.49852,2.377252 -3.01212,2.848319 -3.105488,2.848319 -0.03931,0 -0.119578,0.01846 -0.178375,0.04102 -0.0588,0.02256 -0.226454,-0.03946 -0.372571,-0.137818 z M 25.26671,50.963178 c 1.138641,-0.155938 2.638859,-0.914253 3.562077,-1.80052 0.718858,-0.690086 1.083328,-1.180256 1.517059,-2.040268 0.524937,-1.040857 0.662563,-1.672448 0.665682,-3.05492 0.0037,-1.631366 -0.190302,-2.416888 -0.894629,-3.622779 -0.534462,-0.915062 -2.24668,-2.58445 -2.650758,-2.58445 -0.193208,0 -9.484659,9.359465 -9.550268,9.620177 -0.03199,0.127133 0.04258,0.288911 0.275167,0.596977 0.438217,0.580413 1.314757,1.435619 1.800722,1.756894 0.748728,0.494989 1.86763,0.986323 2.639563,1.15909 0.312086,0.06985 2.050294,0.04993 2.635385,-0.0302 z m -3.920049,-9.590011 c 2.254517,-2.266445 4.099122,-4.158388 4.099122,-4.204318 0,-0.190205 -0.441379,-0.248763 -1.580723,-0.209714 -1.344538,0.04608 -1.856188,0.159068 -2.870991,0.634004 -1.934296,0.905264 -3.497017,2.845498 -3.912689,4.857894 -0.117137,0.567094 -0.16799,2.667493 -0.07072,2.920974 0.02574,0.06708 0.08957,0.121969 0.141842,0.121969 0.05227,0 1.939644,-1.854364 4.19416,-4.120809 z m 9.728038,-4.977986 c 0,-1.473516 -0.02379,-2.00482 -0.08976,-2.00482 -0.113346,0 -2.069276,1.929555 -2.069276,2.041373 0,0.146207 1.934997,1.968266 2.090267,1.968266 0.03852,0 0.06877,-0.88176 0.06877,-2.004819 z m 4.950184,-9.697646 c 1.603181,-1.601657 2.914876,-2.956819 2.914876,-3.011472 0,-0.124803 -0.418424,-0.309532 -2.351807,-1.038297 -1.969479,-0.742369 -3.33159,-1.211621 -3.517005,-1.211621 -0.140957,0 -0.145646,0.131573 -0.145646,4.086747 0,3.12281 0.02178,4.086747 0.09235,4.086747 0.05079,0 1.404047,-1.310447 3.007229,-2.912104 z M 47.036145,23.565278 V 22.532967 L 45.728524,22.06309 c -0.719192,-0.258431 -1.444605,-0.49178 -1.612029,-0.518553 -0.298196,-0.04768 -0.317926,-0.0357 -0.967077,0.587514 -0.36447,0.349905 -0.662671,0.679986 -0.662671,0.733514 0,0.106583 0.801493,0.459029 2.351807,1.034179 0.551326,0.204537 1.193253,0.443418 1.426506,0.530847 0.795075,0.298017 0.771085,0.32494 0.771085,-0.865313 z m -5.816834,-2.065574 c 0.361162,-0.34673 0.646613,-0.680855 0.634336,-0.7425 -0.02593,-0.1302 -0.505805,-0.328796 -3.560725,-1.473601 -2.795738,-1.04768 -4.802269,-1.763304 -5.125201,-1.82789 l -0.247036,-0.04941 0.02159,1.020587 0.02159,1.020588 1.850603,0.695253 c 3.15608,1.185708 5.389937,1.981107 5.572893,1.984314 0.116876,0.0021 0.394161,-0.207041 0.83196,-0.627344 z m 5.79986,-1.893939 c -0.01837,-0.835894 -0.04031,-0.985777 -0.1473,-1.006288 -0.167748,-0.03216 -1.469409,1.201305 -1.438283,1.362927 0.02834,0.147169 1.088692,0.622413 1.392812,0.624252 l 0.214352,0.0013 z M 44.139454,18.574739 C 44.502755,18.230845 44.8,17.906776 44.8,17.854586 c 0,-0.120542 -0.09739,-0.163876 -2.004819,-0.892059 -4.139311,-1.58023 -9.550743,-3.54566 -9.762288,-3.54566 -0.09345,0 -0.108493,0.169197 -0.09055,1.018277 L 32.963855,15.45342 35.2,16.288697 c 2.158372,0.806226 7.159708,2.652671 7.633735,2.818301 0.496109,0.173345 0.608846,0.12739 1.305719,-0.532259 z"
     style="fill:#00ffff;fill-opacity:0.0901961;stroke-width:0.0771084" />
  <path
     id="path212"
     d="m 10.638844,53.613177 c -0.276716,-0.190719 -0.378196,-0.343233 -0.38097,-0.572556 -0.003,-0.248243 0.504545,-0.837781 2.746362,-3.190019 0.889214,-0.933012 1.838119,-1.933309 2.108678,-2.222882 l 0.491924,-0.526496 -0.110853,-0.784347 c -0.07072,-0.500369 -0.108763,-1.384576 -0.105081,-2.442178 0.0051,-1.454124 0.02644,-1.733018 0.173997,-2.269724 0.485433,-1.76568 1.934742,-3.77293 3.48368,-4.824794 0.642893,-0.43658 2.100434,-1.131228 2.620889,-1.249086 0.614299,-0.13911 4.094698,-0.132936 4.883774,0.0087 l 0.604257,0.108433 1.959313,-1.958183 1.959313,-1.958183 0.01956,-10.02188 0.01956,-10.02188 0.262005,-0.176563 c 0.555313,-0.37422 0.632448,-0.350773 9.063211,2.754961 4.493102,1.655175 5.737394,2.085848 5.872316,2.032523 0.09416,-0.03721 1.449618,-1.287912 3.012134,-2.779329 3.278322,-3.12915 3.432559,-3.264236 3.726991,-3.264236 0.259277,0 0.694668,0.451399 0.694668,0.72021 0,0.298954 -0.818038,1.213561 -4.027424,4.502859 -0.796001,0.815821 -1.447274,1.518772 -1.447274,1.562114 0,0.04334 0.106209,0.22542 0.236019,0.404618 l 0.23602,0.325816 -0.02397,4.203637 c -0.02704,4.741179 -0.01598,4.646397 -0.547332,4.690359 -0.39051,0.03231 -0.703459,-0.06464 -4.08368,-1.265086 -1.60086,-0.568526 -2.963546,-1.033684 -3.02819,-1.033684 -0.06464,0 -1.91732,1.770309 -4.117057,3.934021 l -3.999525,3.934021 -0.04583,0.904534 c -0.02521,0.497492 -0.06523,2.032243 -0.08895,3.410557 -0.0759,4.411888 -0.191542,8.266032 -0.272631,9.086659 -0.08508,0.861015 -0.245225,1.366999 -0.750871,2.372415 -0.541183,1.076075 -1.903762,2.593436 -2.900353,3.229819 -0.687526,0.439026 -2.266077,1.171572 -2.728289,1.266097 -0.226168,0.04625 -1.229588,0.08356 -2.2473,0.08356 -2.0987,0 -2.334355,-0.04402 -3.586544,-0.669983 -1.046931,-0.523355 -1.755506,-1.047149 -2.833081,-2.094272 -0.538943,-0.523713 -1.013189,-0.940098 -1.053879,-0.925301 -0.04069,0.0148 -1.12665,1.020288 -2.413245,2.234422 -1.286596,1.214134 -2.44837,2.298472 -2.581721,2.409638 -0.280863,0.23414 -0.531411,0.256271 -0.800627,0.07072 z m 14.686207,-2.647728 c 0.625267,-0.09037 1.618017,-0.477783 2.371688,-0.925531 1.346941,-0.800203 2.431945,-2.134438 2.990078,-3.676915 0.458682,-1.267628 0.463339,-3.386048 0.01033,-4.700311 -0.324404,-0.94116 -0.772991,-1.631995 -1.652986,-2.545637 -0.917688,-0.952776 -1.367756,-1.2915 -1.628939,-1.225947 -0.231217,0.05803 -9.437269,9.341497 -9.496118,9.575971 -0.0815,0.324741 0.919401,1.50869 1.900704,2.248298 0.501873,0.378261 1.859701,1.040983 2.464528,1.202876 0.503661,0.134814 2.247249,0.161877 3.040714,0.0472 z m -3.979954,-9.588557 c 2.255378,-2.264395 4.100686,-4.154259 4.100686,-4.199696 0,-0.177204 -0.335792,-0.242233 -1.247943,-0.241674 -1.474,9.02e-4 -2.290467,0.179036 -3.417117,0.745527 -0.666576,0.33516 -1.071917,0.641213 -1.797891,1.357502 -0.839897,0.828691 -1.376151,1.68385 -1.759711,2.806193 -0.183461,0.536829 -0.210215,0.749751 -0.242338,1.928661 -0.0376,1.379799 -0.0052,1.720571 0.163374,1.720571 0.05514,0 1.945563,-1.852688 4.20094,-4.117084 z m 9.729602,-4.981711 c 0,-1.540422 -0.02208,-2.00482 -0.09531,-2.00482 -0.114856,0 -2.063722,1.930118 -2.063722,2.043869 0,0.148714 1.924632,1.96577 2.082149,1.96577 0.04914,0 0.07689,-0.72354 0.07689,-2.004819 z m 4.878254,-9.619277 c 1.564039,-1.558555 2.880298,-2.900386 2.92502,-2.981848 0.06402,-0.116608 0.05131,-0.170049 -0.05973,-0.251245 -0.307136,-0.224583 -5.072784,-1.995229 -5.594757,-2.078695 l -0.298184,-0.04768 v 4.096602 c 0,3.121044 0.0219,4.096603 0.09197,4.096603 0.05058,0 1.37164,-1.275181 2.935679,-2.833735 z m 11.06609,-3.231258 -0.02145,-1.052944 -1.387951,-0.485122 c -0.763374,-0.266818 -1.487613,-0.486969 -1.609422,-0.489225 -0.175769,-0.0033 -0.354774,0.126013 -0.86747,0.626443 -0.3553,0.3468 -0.646,0.6717 -0.646,0.722 0,0.0503 0.211939,0.186567 0.470975,0.302816 0.907911,0.407446 3.656447,1.419228 3.86855,1.424078 l 0.214225,0.0049 -0.02145,-1.052944 z m -5.802776,-2.04202 c 0.359487,-0.345122 0.653613,-0.674295 0.653613,-0.731495 0,-0.0572 -0.130121,-0.160171 -0.289157,-0.228823 -1.327197,-0.572916 -7.997588,-3.029043 -8.40713,-3.095617 l -0.252914,-0.04111 0.02159,1.030657 0.02159,1.030657 1.503615,0.562162 c 1.546913,0.578351 4.781675,1.758966 5.39759,1.970001 0.589449,0.201966 0.645002,0.181556 1.351207,-0.496429 z m 5.802904,-1.896861 c -0.01837,-0.835894 -0.04031,-0.985777 -0.1473,-1.006288 -0.145284,-0.02785 -1.455004,1.178239 -1.455004,1.33988 0,0.177286 0.998146,0.632734 1.409533,0.643162 l 0.214352,0.0054 z m -2.872784,-1.03326 C 44.505875,18.227384 44.8,17.900983 44.8,17.847171 c 0,-0.05381 -0.268916,-0.209959 -0.59759,-0.346993 -1.919462,-0.80028 -10.875464,-4.083311 -11.139141,-4.083311 -0.125644,0 -0.137908,0.09127 -0.137298,1.021687 l 6.94e-4,1.021687 2.370415,0.881006 c 6.540112,2.430746 7.71045,2.85138 7.943307,2.854918 0.213186,0.0032 0.353984,-0.09368 0.906024,-0.62366 z"
     style="fill:#00ffff;fill-opacity:0.0901961;stroke-width:0.0771084" />
  <path
     id="path214"
     d="m 10.658669,53.592223 c -0.138697,-0.08565 -0.291871,-0.242847 -0.340388,-0.349331 -0.157361,-0.345368 -0.07742,-0.444719 2.822719,-3.507952 1.023865,-1.081446 2.003841,-2.12241 2.177723,-2.313253 l 0.316149,-0.346988 -0.104927,-0.693976 c -0.06384,-0.422262 -0.10558,-1.360883 -0.106593,-2.397304 -0.0014,-1.459011 0.02065,-1.790813 0.15391,-2.313253 0.431171,-1.69038 1.82731,-3.688044 3.323888,-4.75598 0.665184,-0.474666 2.306648,-1.265403 2.834676,-1.365539 0.576668,-0.109362 4.073597,-0.100726 4.81341,0.01189 l 0.60225,0.09167 1.961606,-1.960475 1.961607,-1.960475 V 25.51686 c 0,-3.417919 0.02292,-7.930126 0.05092,-10.027127 L 31.17655,11.677 31.376227,11.525247 c 0.134408,-0.10215 0.313096,-0.149722 0.546665,-0.145539 0.593591,0.01063 1.059441,0.170663 9.407228,3.231625 4.997536,1.832493 4.791116,1.762703 4.987849,1.686367 0.09408,-0.03651 1.027537,-0.881796 2.074345,-1.878423 3.280404,-3.123152 4.149475,-3.924754 4.403491,-4.06163 0.21934,-0.118191 0.269423,-0.12051 0.455952,-0.02111 0.209772,0.11178 0.491991,0.493466 0.492533,0.666122 6.17e-4,0.187858 -0.97399,1.284477 -3.192744,3.592551 -1.254917,1.305435 -2.281666,2.409545 -2.281666,2.453577 0,0.04403 0.109624,0.239392 0.243608,0.434132 l 0.24361,0.354074 -0.04925,4.093554 c -0.02963,2.462514 -0.08143,4.206505 -0.130004,4.377037 -0.162851,0.571676 -0.323637,0.540453 -4.163386,-0.808485 -1.505542,-0.52891 -2.883712,-1.005329 -3.062601,-1.05871 l -0.32525,-0.09706 -0.40728,0.353364 c -0.224003,0.194351 -2.050698,1.977824 -4.059322,3.963276 l -3.652042,3.609912 -0.06557,2.351807 c -0.03606,1.293494 -0.102996,4.017349 -0.148737,6.053012 -0.121581,5.410859 -0.162116,5.765638 -0.807421,7.066878 -0.409533,0.825815 -0.692991,1.24099 -1.378099,2.018473 -0.727524,0.825619 -1.486236,1.410083 -2.510778,1.934149 -1.572553,0.80438 -1.663685,0.827006 -3.515428,0.872799 -2.057575,0.05088 -2.718635,-0.02653 -3.648075,-0.427239 -1.281778,-0.552604 -2.122734,-1.150792 -3.567968,-2.537962 -0.423376,-0.406367 -0.806181,-0.71402 -0.860169,-0.691301 -0.05351,0.02251 -1.142442,1.023972 -2.419859,2.225461 -1.277416,1.201489 -2.405127,2.260025 -2.506024,2.352303 -0.275786,0.252228 -0.529127,0.284303 -0.821164,0.103963 z m 15.442536,-2.807066 c 2.047659,-0.703851 3.478364,-1.971924 4.3689,-3.872278 0.426861,-0.910897 0.547406,-1.544217 0.548932,-2.883963 0.0026,-2.247155 -0.51928,-3.490418 -2.142729,-5.10499 -0.848,-0.843362 -1.204294,-1.097268 -1.452374,-1.035004 -0.247026,0.062 -9.442326,9.329122 -9.505136,9.579378 -0.06486,0.258438 0.230916,0.687955 1.005862,1.460668 0.7181,0.71603 1.115113,1.003347 1.994845,1.443667 1.236984,0.61913 1.521027,0.677921 3.138326,0.649568 1.319441,-0.02313 1.472805,-0.04092 2.043374,-0.237046 z m -4.955453,-9.204434 c 2.146055,-2.152289 3.998164,-4.030287 4.115799,-4.173328 0.206112,-0.250627 0.208606,-0.263931 0.06866,-0.366265 -0.193555,-0.14153 -1.945145,-0.138977 -2.746742,0.004 -2.368835,0.422529 -4.494265,2.316718 -5.370486,4.786192 -0.170229,0.47976 -0.195745,0.700188 -0.229545,1.983004 -0.03917,1.486468 -0.02116,1.679648 0.156545,1.679648 0.05712,0 1.859718,-1.760964 4.005773,-3.913253 z m 9.928947,-5.185542 c 0,-1.540422 -0.02208,-2.00482 -0.09531,-2.00482 -0.114803,0 -2.063722,1.93009 -2.063722,2.043784 0,0.153701 1.921624,1.965855 2.084611,1.965855 0.04592,0 0.07442,-0.767862 0.07442,-2.004819 z m 4.953082,-9.69752 c 1.601588,-1.601587 2.911978,-2.954135 2.911978,-3.005661 0,-0.137513 -0.467668,-0.354675 -2.113189,-0.981264 -2.029505,-0.772804 -3.491768,-1.274591 -3.714294,-1.274591 h -0.186975 v 4.086747 c 0,3.192044 0.02085,4.086747 0.09525,4.086747 0.05239,0 1.405643,-1.31039 3.00723,-2.911978 z m 11.008364,-3.138322 c 0,-0.910309 -0.01663,-1.047015 -0.13494,-1.109377 -0.285446,-0.150457 -2.742965,-0.936709 -2.927788,-0.936709 -0.139617,0 -0.377357,0.178316 -0.84067,0.630545 -0.3553,0.3468 -0.646,0.67161 -0.646,0.7218 0,0.114331 0.883353,0.516976 2.236145,1.019268 0.57253,0.21258 1.231807,0.458099 1.46506,0.545599 0.233253,0.0875 0.519518,0.160898 0.636144,0.163107 l 0.212049,0.004 z m -5.819878,-2.056713 c 0.359487,-0.345122 0.653613,-0.67667 0.653613,-0.736773 0,-0.147337 -0.438055,-0.332574 -3.421967,-1.44702 -3.253691,-1.215204 -4.954923,-1.819038 -5.272009,-1.871245 l -0.250603,-0.04126 v 1.032986 1.032985 l 0.906024,0.340065 c 3.12145,1.1716 6.334723,2.313062 6.517472,2.315225 0.164369,0.0019 0.365108,-0.142676 0.86747,-0.624963 z m 5.802904,-1.896861 c -0.01877,-0.854134 -0.03873,-0.985475 -0.153121,-1.007409 -0.151569,-0.02906 -1.449183,1.177784 -1.449183,1.347812 0,0.147806 1.053562,0.641784 1.368804,0.641784 h 0.255081 z m -2.872784,-1.03326 C 44.505875,18.227384 44.8,17.902391 44.8,17.850299 c 0,-0.135182 -0.70382,-0.433325 -3.546988,-1.502527 -4.308989,-1.620439 -7.967432,-2.930905 -8.182242,-2.930905 -0.135284,0 -0.145469,0.07203 -0.145469,1.028707 v 1.028706 l 3.450603,1.282956 c 5.558507,2.066688 6.597506,2.435919 6.864459,2.439438 0.21289,0.0028 0.354752,-0.09492 0.906024,-0.624169 z"
     style="fill:#00ffff;fill-opacity:0.0901961;stroke-width:0.0771084" />
  <path
     id="path216"
     d="m 10.592157,53.530815 c -0.09046,-0.07327 -0.205966,-0.214129 -0.256684,-0.313013 -0.156816,-0.30574 -0.04545,-0.442009 2.965732,-3.628995 1.017831,-1.077256 1.962179,-2.087746 2.09855,-2.245533 l 0.247948,-0.286888 -0.08793,-0.492048 c -0.04973,-0.27825 -0.09045,-1.363157 -0.09373,-2.496868 -0.0055,-1.895565 0.004,-2.036128 0.174615,-2.579329 0.383446,-1.221048 1.190724,-2.554678 2.162059,-3.571739 0.768737,-0.804925 1.304997,-1.178622 2.578721,-1.796999 0.861705,-0.418347 1.157214,-0.523522 1.64981,-0.587191 0.673845,-0.08709 4.269899,-0.02878 4.772471,0.07739 l 0.316969,0.06696 1.968109,-1.955694 1.968108,-1.955693 0.05756,-10.024704 0.05756,-10.024702 0.193064,-0.151864 c 0.330608,-0.260057 0.833244,-0.200189 2.215639,0.263904 0.933669,0.313448 9.849336,3.541614 12.20842,4.4204 0.234383,0.08731 0.389307,0.103298 0.520454,0.05371 0.102703,-0.03883 1.285474,-1.111567 2.628382,-2.383856 3.831181,-3.629714 3.9684,-3.74583 4.248259,-3.594962 0.17182,0.09262 0.445448,0.396982 0.502013,0.558388 0.02407,0.06868 -0.01715,0.224824 -0.0916,0.346988 -0.194579,0.3193 -1.338931,1.570795 -3.366425,3.681618 -0.972168,1.012124 -1.816004,1.918048 -1.87519,2.013164 -0.09795,0.157418 -0.08481,0.206077 0.146429,0.542174 l 0.25404,0.369236 -0.07367,4.210372 c -0.0558,3.189495 -0.09793,4.254842 -0.173724,4.393779 -0.187011,0.342792 -0.724879,0.21602 -4.176748,-0.984437 -1.720879,-0.59847 -3.190743,-1.088127 -3.266365,-1.088127 -0.140377,0 -0.949894,0.775537 -5.547618,5.314751 L 32.904651,32.260491 32.842091,34.27 c -0.03441,1.10523 -0.101178,3.692401 -0.148374,5.749268 -0.09707,4.230325 -0.177417,5.719118 -0.348791,6.462736 -0.160309,0.695604 -0.699651,1.783173 -1.257244,2.535198 -0.953266,1.285669 -2.016007,2.154184 -3.528834,2.883907 -1.202562,0.580063 -1.476195,0.628814 -3.578123,0.637499 -2.100896,0.0087 -2.352329,-0.03595 -3.585542,-0.63647 -1.010037,-0.491842 -1.633414,-0.944174 -2.866284,-2.079817 -0.558624,-0.514571 -1.045164,-0.935583 -1.081198,-0.935583 -0.03603,0 -0.776086,0.663993 -1.64456,1.475541 -0.868473,0.811548 -2.019903,1.88721 -2.558732,2.390361 -0.844378,0.788469 -1.014777,0.914584 -1.233735,0.913106 -0.139725,-9.41e-4 -0.328057,-0.06167 -0.418515,-0.13494 z m 15.509048,-2.734063 c 1.956002,-0.695351 3.340381,-1.870783 4.228445,-3.590238 0.559987,-1.084239 0.687039,-1.663198 0.688859,-3.139044 0.0018,-1.442198 -0.114043,-2.09685 -0.523533,-2.959118 -0.37211,-0.783558 -0.85103,-1.433701 -1.629772,-2.212443 -0.801171,-0.80117 -1.186689,-1.070883 -1.439862,-1.007341 -0.250057,0.06276 -9.441753,9.321585 -9.505281,9.574699 -0.05534,0.220516 0.128991,0.535521 0.671577,1.147629 0.648368,0.731445 1.427761,1.322521 2.333541,1.76971 1.290231,0.636996 1.44955,0.668949 3.171207,0.636036 1.323537,-0.0253 1.5172,-0.04654 2.004819,-0.21989 z m -4.912444,-9.254583 c 2.167209,-2.173494 4.017788,-4.051863 4.112398,-4.174153 0.166666,-0.215429 0.167535,-0.225621 0.02792,-0.327711 -0.176284,-0.128902 -1.903922,-0.14543 -2.644231,-0.0253 -2.400946,0.389612 -4.633472,2.361999 -5.495185,4.854872 -0.148434,0.429407 -0.178337,0.707947 -0.208754,1.944449 -0.03668,1.491273 -0.01859,1.679647 0.161343,1.679647 0.05837,0 1.879299,-1.778313 4.046509,-3.951807 z m 9.885938,-5.146988 c 0,-1.540422 -0.02208,-2.00482 -0.09531,-2.00482 -0.120946,0 -2.063722,1.933212 -2.063722,2.053563 0,0.125812 1.918902,1.956076 2.050809,1.956076 0.09012,0 0.108227,-0.335378 0.108227,-2.004819 z m 4.95186,-9.695021 c 1.60226,-1.600214 2.9132,-2.952882 2.9132,-3.00593 0,-0.05305 -0.164819,-0.179375 -0.366265,-0.280726 -0.874705,-0.440079 -5.12105,-1.977359 -5.461954,-1.977359 h -0.186239 v 4.086747 c 0,3.163361 0.02125,4.086747 0.09403,4.086747 0.05172,0 1.404968,-1.309266 3.007228,-2.909479 z m 11.009586,-3.141553 v -1.038984 l -0.212049,-0.108906 c -0.341703,-0.175494 -2.633148,-0.897464 -2.848444,-0.897464 -0.142416,0 -0.375671,0.174489 -0.842905,0.630545 -0.3553,0.3468 -0.646,0.670967 -0.646,0.720371 0,0.161948 1.116097,0.629381 4.009639,1.679279 0.06361,0.02308 0.211084,0.04471 0.32771,0.04805 l 0.212049,0.0061 z M 41.22388,21.499576 c 0.355299,-0.3468 0.646,-0.678349 0.646,-0.736774 0,-0.146106 -0.484333,-0.351084 -3.508434,-1.484829 -2.642734,-0.99077 -4.286563,-1.578874 -5.031541,-1.800109 L 32.925301,17.35771 v 1.063912 1.063913 l 1.401248,0.522711 c 3.252998,1.213475 5.823143,2.11677 6.029861,2.119234 0.174852,0.0021 0.357446,-0.130083 0.86747,-0.627904 z m 5.795291,-1.893811 c -0.01877,-0.854134 -0.03873,-0.985475 -0.153121,-1.007409 -0.145179,-0.02784 -1.449183,1.174262 -1.449183,1.335933 0,0.201609 0.92991,0.642125 1.370979,0.649458 l 0.252906,0.0042 z m -2.872784,-1.03326 C 44.505875,18.227384 44.8,17.904659 44.8,17.855341 c 0,-0.04932 -0.156024,-0.165473 -0.346719,-0.25812 -1.123942,-0.546053 -11.015887,-4.180354 -11.378209,-4.180354 -0.140834,0 -0.149771,0.06162 -0.149771,1.032715 0,0.912126 0.01576,1.038845 0.13494,1.085226 0.542971,0.2113 7.197731,2.670251 8.308434,3.069988 0.763373,0.274734 1.44,0.518308 1.503614,0.541273 0.06361,0.02297 0.229248,0.04449 0.368074,0.04784 0.214485,0.0052 0.350621,-0.0882 0.906024,-0.621407 z"
     style="fill:#00ffff;fill-opacity:0.0901961;stroke-width:0.0771084" />
  <path
     id="path218"
     d="m 10.569772,53.467845 c -0.136108,-0.114528 -0.237242,-0.273949 -0.237242,-0.373974 0,-0.322926 0.07661,-0.411918 3.377848,-3.923858 l 1.951341,-2.075887 -0.06218,-0.43381 c -0.0342,-0.238595 -0.06218,-1.440075 -0.06218,-2.669955 v -2.236144 l 0.278198,-0.712632 c 0.71335,-1.827315 2.123196,-3.539347 3.654333,-4.437599 0.296867,-0.17416 0.886747,-0.470524 1.310843,-0.658588 0.742035,-0.329053 0.81081,-0.34443 1.825561,-0.408158 0.876337,-0.05504 3.910956,0.01654 4.386053,0.10345 0.0702,0.01284 0.940946,-0.77889 2.097069,-1.906777 l 1.977021,-1.928738 0.04575,-9.676082 c 0.02516,-5.321844 0.06427,-9.858677 0.08691,-10.081851 0.03625,-0.357382 0.06969,-0.420524 0.280427,-0.529499 0.518016,-0.267876 0.815588,-0.175056 9.021558,2.814028 3.042819,1.108369 5.602894,2.015217 5.689055,2.015217 0.169567,0 0.78026,-0.5456 3.583365,-3.201421 2.412344,-2.285592 3.022429,-2.813037 3.253781,-2.813037 0.244386,0 0.640195,0.39428 0.640195,0.637724 0,0.273404 -0.684765,1.045099 -4.144578,4.670728 -0.689157,0.722186 -1.253012,1.355607 -1.253012,1.407604 0,0.052 0.106526,0.260546 0.236725,0.463444 l 0.236726,0.368905 -0.08101,4.148689 c -0.04456,2.281779 -0.103179,4.227141 -0.130276,4.323027 -0.118129,0.417999 -0.582412,0.325206 -3.654938,-0.730488 -4.041108,-1.388493 -3.745001,-1.299785 -3.958062,-1.185759 -0.235191,0.125871 -7.935512,7.682697 -8.008274,7.859041 -0.0292,0.07076 -0.108679,2.540218 -0.176628,5.487688 -0.136249,5.9101 -0.221292,7.78724 -0.389502,8.597389 -0.133757,0.644212 -0.67804,1.804304 -1.169958,2.493666 -0.879467,1.232462 -1.978672,2.167825 -3.389214,2.884034 -1.422657,0.722359 -1.378472,0.714067 -3.804747,0.714067 -2.359875,0 -2.37676,-0.0027 -3.587571,-0.579736 -0.831834,-0.396407 -1.678073,-1.013878 -2.878972,-2.100684 -0.550078,-0.497818 -1.029794,-0.905122 -1.066036,-0.905122 -0.07306,0 -0.817512,0.6772 -3.210557,2.920512 -0.883183,0.827922 -1.71402,1.585164 -1.846306,1.682761 -0.311783,0.230027 -0.528744,0.22417 -0.821509,-0.02218 z M 25.6,50.93556 c 0.986535,-0.211683 2.209378,-0.836895 3.076926,-1.573163 0.830692,-0.704991 1.705675,-2.020753 2.093593,-3.148256 0.24162,-0.70228 0.342721,-2.027899 0.235398,-3.086498 -0.18049,-1.780294 -0.723773,-2.840266 -2.201173,-4.294591 -0.7691,-0.757088 -1.132836,-1.006368 -1.378477,-0.944716 -0.24239,0.06084 -9.441472,9.317011 -9.50294,9.561919 -0.02663,0.106109 0.0044,0.285083 0.07227,0.416243 0.174626,0.33769 1.221573,1.424769 1.767138,1.834877 0.557379,0.41899 1.843428,1.061601 2.444497,1.221464 0.569918,0.151578 2.708272,0.159596 3.392771,0.01272 z m -4.423796,-9.354837 c 2.146577,-2.152289 3.992495,-4.029958 4.102043,-4.172599 0.193086,-0.251413 0.194705,-0.262615 0.05296,-0.366265 -0.211602,-0.154727 -2.098265,-0.144739 -2.876623,0.01523 -2.022538,0.415672 -3.864147,1.884412 -4.873971,3.887144 -0.515406,1.022178 -0.556793,1.218325 -0.597526,2.83188 -0.02058,0.815175 -0.01706,1.535175 0.0078,1.6 0.02488,0.06483 0.0986,0.117863 0.163837,0.117863 0.06523,0 1.874897,-1.760964 4.021472,-3.913253 z m 9.898495,-5.185542 c 0,-1.617667 -0.01982,-2.00482 -0.102646,-2.00482 -0.132595,0 -2.05639,1.909193 -2.05639,2.040781 0,0.135849 1.905156,1.968858 2.046352,1.968858 0.09595,0 0.112684,-0.297715 0.112684,-2.004819 z m 4.97754,-9.709759 c 1.588136,-1.587114 2.88752,-2.930892 2.88752,-2.986174 0,-0.05528 -0.07807,-0.150252 -0.173494,-0.211046 -0.450826,-0.287224 -4.979194,-1.954901 -5.503384,-2.026749 l -0.33758,-0.04627 v 4.102882 c 0,3.667931 0.01269,4.100238 0.119709,4.07795 0.06584,-0.01371 1.419092,-1.323478 3.007229,-2.910593 z m 10.983906,-3.126815 v -1.038984 l -0.212049,-0.108186 c -0.337898,-0.172395 -2.610642,-0.898304 -2.80842,-0.897003 -0.09874,6.16e-4 -0.229411,0.03274 -0.290376,0.07132 -0.225937,0.142963 -1.238553,1.194647 -1.238553,1.286338 0,0.05226 0.199518,0.189867 0.443373,0.305787 0.830387,0.394734 3.603935,1.414014 3.855422,1.416869 l 0.250603,0.0028 z m -6.070098,-1.794752 c 0.503947,-0.443714 0.903833,-0.893856 0.903833,-1.017425 0,-0.05007 -0.219516,-0.190575 -0.487812,-0.312226 -0.911823,-0.41344 -7.656119,-2.898193 -8.244719,-3.037543 l -0.212048,-0.0502 v 1.074238 1.074237 l 0.636145,0.243105 c 0.658076,0.251485 5.613076,2.050763 6.226506,2.26099 0.575267,0.19715 0.719869,0.168284 1.178095,-0.235174 z m 6.053124,-2.15809 c -0.01877,-0.854134 -0.03873,-0.985475 -0.153121,-1.007409 -0.146574,-0.0281 -1.449183,1.175028 -1.449183,1.338512 0,0.208312 0.907507,0.635694 1.370979,0.645651 l 0.252906,0.0054 z M 43.920767,18.807653 C 44.420619,18.354986 44.8,17.937319 44.8,17.839694 c 0,-0.03721 -0.0691,-0.110811 -0.153553,-0.163553 -0.627078,-0.391617 -11.141819,-4.259274 -11.579404,-4.259274 -0.137285,0 -0.1448,0.06332 -0.124641,1.050098 l 0.02145,1.050098 1.542169,0.573705 c 0.848193,0.315537 2.912771,1.075963 4.587952,1.689835 1.675181,0.613871 3.219277,1.182115 3.431325,1.262763 0.666313,0.253417 0.898697,0.214164 1.395466,-0.235713 z"
     style="fill:#00ffff;fill-opacity:0.0901961;stroke-width:0.0771084" />
  <path
     id="path220"
     d="m 20.819277,47.846499 c -0.97166,-0.219713 -2.081928,-0.743629 -2.081928,-0.982426 0,-0.0541 1.820021,-1.918132 4.044492,-4.1423 4.034524,-4.033975 4.044888,-4.043582 4.205516,-3.898215 0.225135,0.203745 0.576463,0.969131 0.779394,1.697952 0.214359,0.769866 0.232278,2.043525 0.04001,2.843689 -0.483768,2.01327 -1.973766,3.619695 -3.981146,4.29223 -0.605259,0.20278 -0.872127,0.247833 -1.615097,0.272661 -0.60389,0.02018 -1.05117,-0.0067 -1.391239,-0.08359 z m 4.862666,-4.092095 c 0.852977,-0.817204 -0.02381,-2.147328 -1.101288,-1.670706 -0.744015,0.329113 -0.809617,1.361817 -0.114261,1.798703 0.357161,0.224401 0.9083,0.166366 1.215549,-0.127997 z"
     style="fill:#00ffff;fill-opacity:0.0901961;stroke-width:0.0771084" />
  <path
     id="path222"
     d="m 20.471702,47.740641 c -0.490814,-0.140609 -1.36378,-0.532597 -1.614291,-0.724864 -0.142266,-0.109188 -0.05822,-0.209724 1.667164,-1.994297 2.136392,-2.209679 5.909913,-5.941555 6.200153,-6.131727 0.196842,-0.128976 0.206574,-0.127432 0.347125,0.05504 0.225589,0.292877 0.610278,1.268147 0.739214,1.874069 0.08268,0.388547 0.106622,0.821211 0.08162,1.475113 -0.06111,1.598674 -0.566262,2.725193 -1.750191,3.903048 -0.569156,0.566237 -0.786919,0.722984 -1.472681,1.060042 -0.442618,0.217551 -1.011568,0.447685 -1.264334,0.511409 -0.649163,0.16366 -2.320712,0.147801 -2.933784,-0.02783 z m 5.207229,-3.983351 c 0.473474,-0.453617 0.471049,-1.130695 -0.0055,-1.531672 -0.325965,-0.274281 -0.704692,-0.330339 -1.082072,-0.160164 -0.752008,0.339108 -0.823475,1.378089 -0.12498,1.816947 0.355491,0.223352 0.908363,0.166306 1.212537,-0.125111 z"
     style="fill:#00ffff;fill-opacity:0.0901961;stroke-width:0.0771084" />
  <path
     id="path224"
     d="m 20.878967,47.806051 c -0.456354,-0.07227 -1.373193,-0.422092 -1.816411,-0.693056 -0.226478,-0.138459 -0.243712,-0.172951 -0.163812,-0.327842 0.04911,-0.09521 1.832183,-1.920235 3.962378,-4.055617 2.83226,-2.839155 3.912358,-3.875231 4.019233,-3.855421 0.181676,0.03367 0.664233,0.986591 0.854242,1.686889 0.178907,0.659385 0.1772,2.218171 -0.0032,2.928153 -0.07005,0.275662 -0.271936,0.796144 -0.448643,1.156626 -0.266172,0.542991 -0.454593,0.789525 -1.098402,1.437182 -0.656228,0.66015 -0.885218,0.835763 -1.472045,1.12892 -0.382211,0.190939 -0.885344,0.405444 -1.118072,0.476679 -0.500344,0.153149 -2.063089,0.220767 -2.71526,0.117487 z m 4.600365,-3.895591 c 0.287198,-0.136284 0.583451,-0.61037 0.58303,-0.933007 -6.16e-4,-0.473817 -0.555734,-1.029556 -1.029022,-1.030177 -0.327651,-4.32e-4 -0.743574,0.226392 -0.907215,0.494745 -0.08916,0.146216 -0.144936,0.381757 -0.145114,0.612834 -2.54e-4,0.333363 0.03319,0.408813 0.299074,0.674699 0.253081,0.25308 0.349627,0.299362 0.624491,0.299362 0.178821,0 0.437461,-0.05331 0.574756,-0.118456 z"
     style="fill:#00ffff;fill-opacity:0.0901961;stroke-width:0.0771084" />
  <path
     id="path226"
     d="m 20.249097,47.616386 c -0.745962,-0.263219 -1.357531,-0.585614 -1.357531,-0.715635 0,-0.142206 4.351687,-4.607329 6.392645,-6.559282 l 1.573367,-1.504755 0.15351,0.186462 c 0.223346,0.271288 0.569703,1.041713 0.706421,1.571338 0.174373,0.675494 0.158858,2.172944 -0.03017,2.912045 -0.398223,1.557035 -1.618784,3.017876 -3.139498,3.75754 -0.949519,0.46184 -1.347985,0.543387 -2.645968,0.541504 -0.988017,-0.0014 -1.184278,-0.0239 -1.652775,-0.189217 z m 5.273907,-3.715465 c 0.265879,-0.157059 0.539747,-0.625964 0.539358,-0.923468 -6.16e-4,-0.47131 -0.555437,-1.029547 -1.023875,-1.030177 -0.619303,-8.32e-4 -1.056977,0.457578 -1.057476,1.107579 -2.54e-4,0.333363 0.03319,0.408813 0.299074,0.674699 0.263059,0.263059 0.343436,0.299362 0.662802,0.299362 0.200191,0 0.460765,-0.05749 0.580117,-0.127995 z"
     style="fill:#00ffff;fill-opacity:0.0901961;stroke-width:0.0771084" />
  <path
     id="path228"
     d="M 20.738117,47.729621 C 20.327087,47.65999 19.320408,47.2506 19.052271,47.044033 l -0.186284,-0.143509 1.083885,-1.146648 c 1.748361,-1.849599 6.778178,-6.814117 6.903745,-6.814117 0.142541,0 0.611087,0.879427 0.801102,1.503614 0.19185,0.630213 0.193749,2.402563 0.0033,3.112355 -0.539379,2.010599 -2.600484,3.886398 -4.585823,4.173528 -0.598927,0.08662 -1.823829,0.08681 -2.334114,3.86e-4 z m 4.8295,-3.846107 c 0.818472,-0.499103 0.513617,-1.806737 -0.446441,-1.914949 -0.664822,-0.07493 -1.13962,0.377428 -1.140165,1.08629 -2.54e-4,0.333363 0.03319,0.408813 0.299074,0.674699 0.265885,0.265885 0.341335,0.299329 0.674699,0.299073 0.231077,-1.77e-4 0.466618,-0.05595 0.612833,-0.145113 z"
     style="fill:#00ffff;fill-opacity:0.0901961;stroke-width:0.0771084" />
  <path
     id="path230"
     d="m 21.00994,47.732475 c -0.53418,-0.05984 -1.475811,-0.397867 -1.912297,-0.686468 l -0.218021,-0.144154 0.907085,-0.954541 c 2.789451,-2.935389 6.99548,-7.048513 7.12553,-6.968137 0.127118,0.07856 0.590965,1.047723 0.729462,1.524133 0.14753,0.507486 0.173531,2.150305 0.04482,2.831632 -0.108301,0.573269 -0.680955,1.705539 -1.159217,2.292041 -0.215275,0.263996 -0.607406,0.656503 -0.871402,0.872239 -0.536166,0.43815 -1.685052,1.031325 -2.214932,1.143577 -0.521323,0.110439 -1.81856,0.158293 -2.431024,0.08968 z m 4.557677,-3.848961 c 0.818472,-0.499103 0.513617,-1.806737 -0.446441,-1.914949 -0.667828,-0.07527 -1.139625,0.377108 -1.140165,1.093244 -2.54e-4,0.337031 0.03352,0.41691 0.28524,0.674699 0.256092,0.262262 0.32565,0.292378 0.674699,0.292119 0.244618,-1.85e-4 0.477386,-0.05408 0.626667,-0.145113 z"
     style="fill:#00ffff;fill-opacity:0.0901961;stroke-width:0.0771084" />
  <path
     id="path232"
     d="m 22.939759,49.857445 c -1.036005,-0.201731 -1.976666,-0.650723 -2.787495,-1.330513 -0.428786,-0.35949 -1.071796,-1.088525 -1.012436,-1.147885 0.02006,-0.02006 0.229845,0.04906 0.466197,0.153581 1.386553,0.6132 2.99424,0.655325 4.471894,0.117173 2.580625,-0.939846 4.213252,-3.568203 3.907109,-6.290032 -0.07543,-0.670622 -0.306054,-1.507556 -0.54468,-1.976636 -0.0844,-0.165917 -0.111831,-0.289157 -0.06435,-0.289157 0.179116,0 1.450534,1.3687 1.754883,1.889157 1.965725,3.361522 0.21639,7.682221 -3.54468,8.755037 -0.722751,0.206159 -1.922534,0.260233 -2.646438,0.119275 z"
     style="fill:#00ffff;fill-opacity:0.0901961;stroke-width:0.0771084" />
  <path
     id="path234"
     d="m 23.311142,49.883975 c -1.038923,-0.103621 -2.124413,-0.560621 -3.039778,-1.279773 -0.464081,-0.364602 -1.116883,-1.085591 -1.046579,-1.155895 0.02284,-0.02284 0.2774,0.05284 0.565693,0.168176 2.102961,0.841317 4.60698,0.370648 6.282912,-1.180969 1.771279,-1.639892 2.398031,-4.144198 1.604325,-6.410388 -0.127381,-0.363699 -0.254006,-0.729713 -0.281391,-0.813366 -0.155402,-0.474718 1.364868,1.159302 1.809011,1.944365 0.818502,1.446779 0.938917,3.451684 0.302012,5.028503 -0.799313,1.978898 -2.776763,3.522385 -4.70113,3.669437 -0.305588,0.02335 -0.642362,0.05207 -0.748386,0.06381 -0.106024,0.01174 -0.442034,-0.0035 -0.746689,-0.0339 z"
     style="fill:#00ffff;fill-opacity:0.0901961;stroke-width:0.0771084" />
  <path
     id="path236"
     d="m 22.598061,49.742389 c -0.966068,-0.245927 -1.937886,-0.79315 -2.697534,-1.51896 -0.364085,-0.347867 -0.639095,-0.655856 -0.611133,-0.684419 0.02796,-0.02857 0.392299,0.05802 0.809639,0.192418 3.664551,1.180082 7.415875,-1.225773 7.892554,-5.061772 0.104803,-0.843387 -0.0074,-1.757871 -0.336886,-2.746764 -0.137789,-0.413494 -0.226507,-0.751808 -0.197152,-0.751808 0.104272,0 1.281131,1.299137 1.566995,1.72981 0.399633,0.602072 0.723288,1.533105 0.831904,2.393065 0.307047,2.431048 -0.99653,4.855456 -3.215484,5.980188 -0.85802,0.43491 -1.312355,0.5418 -2.46747,0.580517 -0.810992,0.02718 -1.111833,0.0057 -1.575433,-0.112275 z"
     style="fill:#00ffff;fill-opacity:0.0901961;stroke-width:0.0771084" />
  <path
     id="path238"
     d="m 22.48916,49.695637 c -0.650459,-0.178723 -1.610872,-0.690534 -2.227085,-1.186829 -0.624778,-0.503195 -0.968395,-0.874172 -0.847137,-0.91459 0.03948,-0.01316 0.380287,0.06713 0.757341,0.178424 2.890625,0.853221 5.897164,-0.432053 7.224603,-3.088466 0.740267,-1.481391 0.828363,-2.901855 0.291881,-4.706344 -0.127932,-0.430307 -0.182808,-0.724364 -0.13211,-0.707921 0.0477,0.01547 0.390335,0.372573 0.761419,0.793565 1.107277,1.256198 1.53685,2.353819 1.53685,3.926885 0,1.825222 -0.778699,3.447061 -2.214238,4.61172 -0.577594,0.468604 -1.7057,1.02056 -2.305448,1.128002 -0.63039,0.112931 -2.387078,0.09167 -2.846076,-0.03445 z"
     style="fill:#00ffff;fill-opacity:0.0901961;stroke-width:0.0771084" />
  <path
     id="path240"
     d="m 22.802096,49.733098 c -0.493418,-0.07787 -1.536046,-0.537456 -2.111845,-0.930894 -0.407667,-0.278555 -1.258926,-1.059902 -1.258926,-1.155533 0,-0.03299 0.320964,0.03201 0.713253,0.144431 0.616344,0.176632 0.859927,0.204709 1.792771,0.206651 1.286287,0.0027 1.751749,-0.101388 2.80198,-0.62645 1.299514,-0.64969 2.39536,-1.876387 2.914591,-3.262613 0.525593,-1.403212 0.522769,-2.617125 -0.01012,-4.352729 -0.064,-0.208438 -0.100375,-0.394963 -0.08084,-0.414501 0.03266,-0.03266 0.423283,0.373698 1.032472,1.074072 0.395715,0.454946 0.774114,1.141516 0.992798,1.801335 0.18077,0.545424 0.204947,0.741894 0.20876,1.696386 0.0049,1.223046 -0.09702,1.722592 -0.534329,2.619246 -0.710944,1.45772 -2.062465,2.620748 -3.585551,3.08548 -0.501711,0.153085 -2.202833,0.221201 -2.875012,0.115119 z"
     style="fill:#00ffff;fill-opacity:0.0901961;stroke-width:0.0771084" />
  <path
     id="path242"
     d="m 20.151997,47.509194 c -0.673294,-0.234377 -1.115229,-0.46154 -1.160164,-0.596347 -0.06738,-0.202133 7.60982,-7.89598 7.878895,-7.89598 0.115131,0 0.374068,0.464377 0.629747,1.129387 0.172732,0.449268 0.208579,0.684413 0.239252,1.569409 0.04591,1.324619 -0.0393,1.778811 -0.513578,2.737349 -0.629149,1.271552 -1.478119,2.120717 -2.744221,2.744855 -0.933598,0.460226 -1.294613,0.532555 -2.651489,0.531222 -0.952486,-9.33e-4 -1.107952,-0.0213 -1.678442,-0.219895 z m 5.424982,-3.631374 c 0.678212,-0.413529 0.622434,-1.426051 -0.100392,-1.822395 -0.362472,-0.198753 -0.909078,-0.113944 -1.210899,0.187877 -0.19992,0.19992 -0.241263,0.30832 -0.270208,0.708474 -0.03342,0.462 -0.02765,0.479122 0.261064,0.77479 0.266503,0.272924 0.333111,0.302322 0.684406,0.302061 0.249844,-1.85e-4 0.477548,-0.05418 0.636029,-0.150807 z"
     style="fill:#00ffff;fill-opacity:0.0901961;stroke-width:0.0771084" />
  <path
     id="path244"
     d="m 19.161446,42.841536 c -0.368028,-0.116392 -0.7824,-0.325442 -0.844614,-0.426107 -0.08379,-0.13558 0.344771,-1.108728 0.769162,-1.746548 0.627358,-0.942861 1.396252,-1.592902 2.452346,-2.073271 0.871686,-0.396491 0.866014,-0.396817 1.089866,0.06271 0.106395,0.218408 0.216356,0.513246 0.244358,0.655196 0.0499,0.252958 0.01735,0.291685 -1.636674,1.946988 -0.928173,0.928893 -1.705233,1.686575 -1.726799,1.683738 -0.02157,-0.0028 -0.178007,-0.04905 -0.347645,-0.102703 z"
     style="fill:#00ffff;fill-opacity:0.0901961;stroke-width:0.0771084" />
  <path
     id="path246"
     d="m 19.183986,42.828399 c -0.619735,-0.216759 -0.832179,-0.353651 -0.832179,-0.536228 0,-0.283831 0.733438,-1.656121 1.133695,-2.121187 0.201936,-0.234634 0.541273,-0.575538 0.754081,-0.757564 0.398182,-0.340588 1.819654,-1.090528 2.067037,-1.090528 0.09238,0 0.202269,0.135834 0.327499,0.404819 0.348623,0.748812 0.355393,0.735356 -1.137964,2.261761 -0.730368,0.746531 -1.485067,1.488187 -1.677109,1.648125 -0.339987,0.283152 -0.356682,0.288168 -0.63506,0.190802 z"
     style="fill:#00ffff;fill-opacity:0.0901961;stroke-width:0.0771084" />
  <path
     id="path248"
     d="m 18.898893,42.696426 c -0.602831,-0.247522 -0.623355,-0.316456 -0.298126,-1.001297 0.769441,-1.620225 1.541791,-2.386294 3.175081,-3.14926 l 0.532475,-0.248738 0.136328,0.168359 c 0.07498,0.0926 0.197706,0.329072 0.272722,0.525499 0.132181,0.346111 0.131768,0.364914 -0.01338,0.608844 -0.298876,0.502272 -3.087879,3.274912 -3.289387,3.270087 -0.05442,-0.0013 -0.286488,-0.07937 -0.515713,-0.173494 z"
     style="fill:#00ffff;fill-opacity:0.0901961;stroke-width:0.0771084" />
  <path
     id="path250"
     d="m 19.022088,42.716175 c -0.458593,-0.174154 -0.593172,-0.282327 -0.593172,-0.476786 0,-0.08325 0.179739,-0.504064 0.399421,-0.935137 0.329923,-0.647396 0.514402,-0.898814 1.060241,-1.444952 0.56669,-0.567 0.786087,-0.724838 1.540236,-1.108074 l 0.879416,-0.446893 0.127873,0.169525 c 0.07033,0.09324 0.185804,0.325832 0.256609,0.516874 0.119146,0.321472 0.119396,0.365541 0.0034,0.591561 -0.135781,0.26448 -2.895941,3.065199 -3.149085,3.195358 -0.114656,0.05895 -0.249307,0.04318 -0.5249,-0.06148 z"
     style="fill:#b3b3b3;fill-opacity:0.0901961;stroke-width:0.0771084" />
  <path
     id="path288"
     d="m 18.853012,42.626955 c -0.169639,-0.08878 -0.333014,-0.199725 -0.363057,-0.246554 -0.162959,-0.254014 0.510731,-1.524801 1.21125,-2.284791 0.659233,-0.715199 0.869916,-0.873308 1.844755,-1.384412 l 0.765237,-0.40121 0.179008,0.295608 c 0.24525,0.405 0.306131,0.774351 0.165769,1.005681 -0.06191,0.102029 -0.78364,0.860147 -1.603849,1.684706 -1.630638,1.639286 -1.621052,1.633484 -2.199113,1.330972 z"
     style="fill:#ffffff;fill-opacity:0.0901961;stroke-width:0.0771084" />
  <path
     id="path290"
     d="m 18.886069,42.64588 c -0.478674,-0.258441 -0.496829,-0.320238 -0.25511,-0.868384 0.58417,-1.324718 1.567203,-2.373782 2.839759,-3.030508 0.410892,-0.212048 0.779948,-0.397292 0.820124,-0.411652 0.09623,-0.0344 0.456146,0.784492 0.456146,1.037847 0,0.153898 -0.345963,0.546251 -1.561446,1.770822 -1.704357,1.717099 -1.793276,1.775176 -2.299473,1.501875 z"
     style="fill:#ffffff;fill-opacity:0.0901961;stroke-width:0.0771084" />
  <path
     id="path292"
     d="m 18.888628,42.621687 c -0.462983,-0.233469 -0.473497,-0.397165 -0.07588,-1.181349 0.38364,-0.756616 0.999486,-1.524984 1.603881,-2.001101 0.340206,-0.268 1.27337,-0.815167 1.875316,-1.099605 0.09843,-0.04651 0.46846,0.921709 0.422395,1.105246 -0.05539,0.220689 -2.741205,2.958191 -3.128799,3.189009 -0.329921,0.196473 -0.281419,0.197322 -0.696913,-0.0122 z"
     style="fill:#ffffff;fill-opacity:0.0901961;stroke-width:0.0771084" />
  <path
     id="path294"
     d="m 24.510674,43.821979 c -0.475051,-0.294827 -0.604992,-0.988364 -0.261633,-1.396423 0.399291,-0.47453 0.998032,-0.511198 1.422136,-0.08709 0.290947,0.290947 0.364624,0.64982 0.209586,1.020879 -0.215757,0.516378 -0.907261,0.749879 -1.370089,0.462638 z"
     style="fill:#ffffff;fill-opacity:0.0901961;stroke-width:0.0771084" />
  <path
     id="path296"
     d="m 24.347448,43.642699 c -0.294906,-0.294905 -0.307398,-0.326906 -0.271885,-0.696492 0.08223,-0.85579 1.001586,-1.203334 1.590301,-0.601182 0.603011,0.616775 0.165308,1.605647 -0.71108,1.606494 -0.245425,2.39e-4 -0.352958,-0.05444 -0.607336,-0.30882 z"
     style="fill:#ffffff;fill-opacity:0.0901961;stroke-width:0.0771084" />
  <path
     id="path298"
     d="m 24.629855,43.8771 c -0.293872,-0.118883 -0.572024,-0.529824 -0.572024,-0.845107 0,-0.565908 0.609553,-1.103863 1.108798,-0.97856 0.304355,0.07639 0.654727,0.420702 0.749294,0.736337 0.212048,0.707755 -0.576446,1.374403 -1.286068,1.08733 z"
     style="fill:#00ffff;fill-opacity:0.0901961;stroke-width:0.0771084" />
  <path
     id="path300"
     d="m 38.939759,17.500705 c -2.353735,-0.886173 -4.426988,-1.667299 -4.607229,-1.735836 -0.318302,-0.121034 -0.327711,-0.13454 -0.327711,-0.470419 0,-0.317301 0.01348,-0.341527 0.163561,-0.293894 0.08996,0.02855 2.310478,0.857051 4.934489,1.841109 l 4.770928,1.789197 -0.253822,0.246015 c -0.139603,0.135308 -0.28687,0.243548 -0.327261,0.240533 -0.04039,-0.003 -1.99922,-0.730533 -4.352955,-1.616705 z"
     style="fill:#00ffff;fill-opacity:0.0901961;stroke-width:0.0771084" />
  <path
     id="path302"
     d="m 38.742306,17.411777 c -2.499594,-0.935504 -4.588089,-1.735531 -4.641101,-1.777837 -0.09784,-0.07808 -0.134781,-0.533697 -0.05014,-0.61834 0.02544,-0.02544 0.120857,-0.01465 0.212048,0.02397 0.09119,0.03862 2.26165,0.851184 4.823243,1.805698 2.561593,0.954514 4.675116,1.753154 4.696717,1.774754 0.04762,0.04762 -0.206595,0.33776 -0.374846,0.427805 -0.08323,0.04454 -1.54518,-0.468072 -4.665923,-1.63605 z"
     style="fill:#00ffff;fill-opacity:0.0901961;stroke-width:0.0771084" />
  <path
     id="path304"
     d="m 42.525301,18.781931 c -0.842692,-0.285458 -4.424818,-1.615214 -6.86012,-2.546611 -0.846801,-0.323865 -1.56627,-0.630748 -1.598819,-0.681962 -0.100181,-0.157626 -0.07043,-0.517213 0.04279,-0.517213 0.07554,0 8.265587,3.033878 9.476386,3.510382 0.18487,0.07275 0.169268,0.235142 -0.03643,0.379221 -0.09425,0.06602 -0.189677,0.119439 -0.212049,0.11871 -0.02237,-7.29e-4 -0.387661,-0.118866 -0.811758,-0.262527 z"
     style="fill:#00ffff;fill-opacity:0.0901961;stroke-width:0.0771084" />
  <path
     id="path306"
     d="m 42.139759,18.627763 c -1.596667,-0.566159 -6.561326,-2.437911 -7.383654,-2.783749 -0.538997,-0.226681 -0.684865,-0.322401 -0.723029,-0.474457 -0.108961,-0.434136 -0.411163,-0.527557 5.947647,1.838618 1.950843,0.725927 3.593511,1.362676 3.650373,1.414997 0.08553,0.0787 0.07303,0.123411 -0.07237,0.25887 -0.09667,0.09006 -0.195237,0.161965 -0.219048,0.159794 -0.02381,-0.0022 -0.563773,-0.188503 -1.199918,-0.414073 z"
     style="fill:#00ffff;fill-opacity:0.0901961;stroke-width:0.0771084" />
  <path
     id="path308"
     d="m 41.985542,18.550936 c -1.859525,-0.658915 -6.73677,-2.508658 -7.33221,-2.780814 -0.525534,-0.240204 -0.731212,-0.450796 -0.584026,-0.597982 0.0988,-0.0988 3.147699,0.983834 7.762019,2.75623 0.848193,0.325798 1.602892,0.610447 1.677109,0.632554 0.262019,0.07805 0.09022,0.411255 -0.208193,0.403804 -0.08694,-0.0022 -0.678554,-0.188377 -1.314699,-0.413792 z"
     style="fill:#00ffff;fill-opacity:0.0901961;stroke-width:0.0771084" />
  <path
     id="path310"
     d="m 42.255422,18.626141 c -2.296497,-0.787981 -7.50628,-2.792408 -7.922892,-3.048276 -0.236228,-0.145083 -0.343873,-0.387504 -0.172068,-0.387504 0.262848,0 7.67695,2.690274 9.126642,3.311685 0.386663,0.165742 0.438678,0.262883 0.207122,0.386807 -0.194523,0.104106 -0.129653,0.117863 -1.238804,-0.262712 z"
     style="fill:#00ffff;fill-opacity:0.0901961;stroke-width:0.0771084" />
  <path
     id="path312"
     d="m 42.082848,18.546647 c -2.08561,-0.721493 -6.889284,-2.563402 -7.592384,-2.911204 -0.288551,-0.142738 -0.465418,-0.336794 -0.382519,-0.419693 0.07314,-0.07314 2.4965,0.773299 6.335428,2.212841 2.768839,1.038274 3.122892,1.189523 3.122892,1.334076 0,0.229061 -0.339916,0.179562 -1.483417,-0.21602 z"
     style="fill:#00ffff;fill-opacity:0.0901961;stroke-width:0.0771084" />
  <path
     id="path314"
     d="m 42.833735,18.800873 c -2.495837,-0.885823 -6.614155,-2.437377 -7.83778,-2.952841 -0.60514,-0.254921 -0.996962,-0.52333 -0.902235,-0.618057 0.08058,-0.08057 2.375486,0.718258 6.278782,2.185574 3.004623,1.129491 3.215229,1.218449 3.174969,1.34109 -0.0411,0.125197 -0.419539,0.148651 -0.713736,0.04423 z"
     style="fill:#00ffff;fill-opacity:0.0901961;stroke-width:0.0771084" />
  <path
     id="path316"
     d="m 43.029354,18.834995 c -0.732338,-0.137154 -8.304155,-3.048274 -8.754655,-3.365883 -0.689136,-0.485851 0.726495,-0.04469 5.166265,1.60998 3.968782,1.479139 4.258054,1.603943 4.039085,1.742626 -0.111324,0.07051 -0.140522,0.07137 -0.450695,0.01328 z"
     style="fill:#00ffff;fill-opacity:0.0901961;stroke-width:0.0771084" />
  <path
     id="path318"
     d="M 37.898795,20.042981 C 36.11759,19.370097 34.512771,18.76349 34.33253,18.694966 c -0.31728,-0.120623 -0.327711,-0.13543 -0.327711,-0.465199 0,-0.187336 0.01692,-0.34061 0.03759,-0.34061 0.02959,0 6.975157,2.595013 7.543509,2.818416 0.125741,0.04942 0.114285,0.08176 -0.111512,0.314719 -0.138406,0.1428 -0.270866,0.256144 -0.294353,0.251876 -0.02349,-0.0043 -1.500055,-0.558302 -3.28126,-1.231187 z"
     style="fill:#00ffff;fill-opacity:0.0901961;stroke-width:0.0771084" />
  <path
     id="path320"
     d="m 37.706024,19.956467 c -1.929638,-0.723148 -3.551807,-1.349579 -3.604819,-1.39207 -0.05301,-0.04249 -0.09639,-0.215515 -0.09639,-0.384498 0,-0.261166 0.02024,-0.299384 0.13494,-0.254846 0.07422,0.02882 1.765783,0.660789 3.759036,1.404382 1.993253,0.743592 3.657594,1.383537 3.698536,1.4221 0.0468,0.04408 -0.01046,0.153587 -0.154217,0.29493 l -0.228656,0.224816 z"
     style="fill:#00ffff;fill-opacity:0.0901961;stroke-width:0.0771084" />
  <path
     id="path322"
     d="m 39.363855,20.574191 c -4.575493,-1.737048 -5.23908,-1.998633 -5.29549,-2.087471 -0.103247,-0.162602 -0.07348,-0.520455 0.0433,-0.520455 0.0812,0 6.027442,2.208397 7.237733,2.688049 0.116626,0.04622 0.212048,0.131567 0.212048,0.189658 0,0.151785 -0.256501,0.362215 -0.430168,0.352906 -0.08148,-0.0044 -0.87682,-0.284577 -1.767423,-0.622687 z"
     style="fill:#00ffff;fill-opacity:0.0901961;stroke-width:0.0771084" />
  <path
     id="path324"
     d="m 40.828916,21.09562 c -0.337395,-0.108167 -4.502502,-1.687749 -5.859201,-2.222053 -0.713568,-0.281022 -0.858804,-0.366764 -0.921048,-0.543755 -0.04639,-0.131898 -0.04677,-0.236835 -0.001,-0.281874 0.07487,-0.07374 1.393579,0.38874 5.275732,1.850223 1.122787,0.422687 2.088828,0.815918 2.146758,0.873848 0.08903,0.08903 0.07813,0.130662 -0.07043,0.269069 -0.201144,0.187394 -0.16666,0.184099 -0.570772,0.05454 z"
     style="fill:#00ffff;fill-opacity:0.0901961;stroke-width:0.0771084" />
  <path
     id="path326"
     d="m 40.790361,21.072275 c -1.348534,-0.504392 -5.995679,-2.286411 -6.259636,-2.400355 -0.375673,-0.162168 -0.598622,-0.432457 -0.466059,-0.56502 0.08932,-0.08932 0.489231,0.04148 3.29437,1.077488 3.10367,1.146262 4.125301,1.55822 4.125301,1.663465 0,0.232888 -0.360045,0.349322 -0.693976,0.224422 z"
     style="fill:#00ffff;fill-opacity:0.0901961;stroke-width:0.0771084" />
  <path
     id="path328"
     d="m 40.559036,20.96611 c -1.542242,-0.546692 -6.133701,-2.355372 -6.288617,-2.477229 -0.230152,-0.181037 -0.245025,-0.368399 -0.02924,-0.368399 0.16832,0 2.715111,0.910794 5.249286,1.877271 2.057997,0.784875 2.194829,0.862768 1.844729,1.050136 -0.195745,0.10476 -0.272831,0.09664 -0.776154,-0.08178 z"
     style="fill:#00ffff;fill-opacity:0.0901961;stroke-width:0.0771084" />
  <path
     id="path330"
     d="m 40.603347,20.965422 c -0.927386,-0.318923 -6.016033,-2.31106 -6.245256,-2.444933 -0.130408,-0.07616 -0.249408,-0.202362 -0.264445,-0.280443 -0.02309,-0.119917 0.0084,-0.134809 0.203063,-0.09588 0.486708,0.09734 6.216327,2.222067 6.813079,2.526507 0.332443,0.1696 0.367867,0.259709 0.148293,0.377221 -0.180566,0.09664 -0.106969,0.105906 -0.654734,-0.08247 z"
     style="fill:#00ffff;fill-opacity:0.0901961;stroke-width:0.0771084" />
  <path
     id="path332"
     d="m 44.660796,22.570648 -1.257277,-0.467982 0.260047,-0.260047 0.260047,-0.260047 0.958676,0.355991 c 0.527271,0.195796 0.986924,0.383678 1.021452,0.417515 0.03453,0.03384 0.05188,0.201255 0.03855,0.372038 l -0.02422,0.310513 z"
     style="fill:#00ffff;fill-opacity:0.0901961;stroke-width:0.0771084" />
  <path
     id="path334"
     d="m 44.549517,22.528035 -1.137231,-0.434136 0.256397,-0.256397 0.256396,-0.256396 0.840672,0.315771 c 1.094457,0.411097 1.190876,0.476947 1.190876,0.813334 0,0.207004 -0.03075,0.266263 -0.13494,0.260032 -0.07422,-0.0044 -0.646694,-0.203433 -1.27217,-0.442208 z"
     style="fill:#00ffff;fill-opacity:0.0901961;stroke-width:0.0771084" />
  <path
     id="path336"
     d="m 44.652684,22.549485 c -0.611145,-0.230128 -1.129847,-0.43709 -1.152673,-0.459915 -0.02282,-0.02283 0.06185,-0.144848 0.18816,-0.271161 l 0.22966,-0.22966 0.768796,0.30083 c 1.076846,0.42137 1.184039,0.47672 1.235159,0.637785 0.04942,0.155705 -0.02106,0.454075 -0.105295,0.445743 -0.02895,-0.0029 -0.552663,-0.193493 -1.163807,-0.423622 z"
     style="fill:#00ffff;fill-opacity:0.0901961;stroke-width:0.0771084" />
  <path
     id="path338"
     d="m 45.416867,22.811489 c -1.014207,-0.346655 -1.850602,-0.704406 -1.850602,-0.791557 0,-0.05184 0.07884,-0.168317 0.17519,-0.258837 l 0.17519,-0.164583 0.885051,0.353168 c 0.486778,0.194242 0.924675,0.384838 0.973104,0.423547 0.116679,0.09326 0.16898,0.308163 0.112057,0.460444 -0.04142,0.1108 -0.08725,0.108637 -0.46999,-0.02218 z"
     style="fill:#00ffff;fill-opacity:0.0901961;stroke-width:0.0771084" />
  <path
     id="path340"
     d="M 44.992771,22.640523 C 44.611084,22.501382 44.128408,22.31176 43.920157,22.219139 l -0.378637,-0.168401 0.18003,-0.191634 c 0.09902,-0.105399 0.234705,-0.189457 0.30153,-0.186795 0.06682,0.0027 0.503185,0.168111 0.969691,0.367666 0.811474,0.347119 0.849239,0.373614 0.872355,0.612028 0.03003,0.309698 0.0079,0.309407 -0.872355,-0.01148 z"
     style="fill:#00ffff;fill-opacity:0.0901961;stroke-width:0.0771084" />
  <path
     id="path342"
     d="m 45.138647,22.675928 c -0.343354,-0.120172 -0.837834,-0.314331 -1.098843,-0.431465 -0.494219,-0.221792 -0.520396,-0.309739 -0.151032,-0.507416 0.212524,-0.11374 1.817066,0.574426 1.933092,0.829076 0.145164,0.3186 -0.0137,0.344132 -0.683217,0.109805 z"
     style="fill:#00ffff;fill-opacity:0.0901961;stroke-width:0.0771084" />
  <path
     id="path344"
     d="m 44.645783,22.470157 c -1.023995,-0.403426 -1.102493,-0.458365 -0.886747,-0.620608 0.213331,-0.160428 0.524714,-0.09653 1.299932,0.266747 0.595057,0.278853 0.891636,0.533903 0.766432,0.659108 -0.09433,0.09433 -0.301414,0.04074 -1.179617,-0.305247 z"
     style="fill:#00ffff;fill-opacity:0.0901961;stroke-width:0.0771084" />
  <path
     id="path346"
     d="m 44.915663,22.563352 c -1.176088,-0.428837 -1.422164,-0.599576 -1.085327,-0.753049 0.163553,-0.07452 0.286482,-0.05562 0.749157,0.115204 0.766583,0.283022 1.222917,0.561999 1.222917,0.747623 0,0.197697 -0.06585,0.189545 -0.886747,-0.109778 z"
     style="fill:#00ffff;fill-opacity:0.0901961;stroke-width:0.0771084" />
  <path
     id="path348"
     d="m 46.496386,20.318639 c -0.419429,-0.15982 -0.424344,-0.16538 -0.446557,-0.505179 -0.02129,-0.325642 -3.01e-4,-0.365437 0.401943,-0.762202 0.315826,-0.311524 0.435707,-0.389164 0.468587,-0.303478 0.0243,0.06333 0.03427,0.479038 0.02215,0.9238 l -0.02203,0.808656 z"
     style="fill:#00ffff;fill-opacity:0.0901961;stroke-width:0.0771084" />
  <path
     id="path350"
     d=""
     style="fill:#00ffff;fill-opacity:0.0901961;stroke-width:0.0771084" />
  <path
     id="path352"
     d=""
     style="fill:#00ffff;fill-opacity:0.0901961;stroke-width:0.0771084" />
  <path
     id="path354"
     d=""
     style="fill:#00ffff;fill-opacity:0.0901961;stroke-width:0.0771084" />
  <path
     id="path356"
     d="m 45.977628,19.816867 c 0,-0.190843 0.01504,-0.268915 0.03342,-0.173494 0.01838,0.09542 0.01838,0.251567 0,0.346988 -0.01838,0.09542 -0.03342,0.01735 -0.03342,-0.173494 z"
     style="fill:#00ffff;fill-opacity:0.0901961;stroke-width:0.0771084" />
  <path
     id="path358"
     d="m 45.968802,19.816867 c 0,-0.106024 0.0175,-0.149397 0.03889,-0.09638 0.02139,0.05301 0.02139,0.139759 0,0.192771 -0.02139,0.05301 -0.03889,0.0096 -0.03889,-0.09639 z"
     style="fill:#00ffff;fill-opacity:0.0901961;stroke-width:0.0771084" />
  <path
     id="path360"
     d="m 22.906825,39.151807 c -0.05274,-0.180241 -0.164172,-0.445582 -0.247618,-0.589648 -0.231261,-0.399263 -0.158351,-0.432648 1.128745,-0.516841 l 0.693976,-0.04539 -0.731008,0.739798 c -0.402053,0.406888 -0.734874,0.739797 -0.739601,0.739797 -0.0047,0 -0.05175,-0.14747 -0.104494,-0.327711 z"
     style="fill:#00ffff;fill-opacity:0.0901961;stroke-width:0.0771084" />
  <path
     id="path362"
     d="m 22.836351,38.957719 c -0.09929,-0.243131 -0.186032,-0.508354 -0.192772,-0.589385 -0.01556,-0.187144 0.164176,-0.236962 1.105819,-0.306495 l 0.73253,-0.05409 -0.692369,0.697331 c -0.380802,0.383532 -0.710441,0.696738 -0.73253,0.696014 -0.02209,-7.25e-4 -0.121394,-0.200243 -0.220678,-0.443375 z"
     style="fill:#00ffff;fill-opacity:0.0901961;stroke-width:0.0771084" />
  <path
     id="path364"
     d="m 22.824665,38.864171 c -0.09485,-0.253622 -0.153368,-0.510861 -0.130044,-0.571643 0.02834,-0.07386 0.21666,-0.126096 0.567869,-0.157507 0.289004,-0.02585 0.660918,-0.06096 0.826476,-0.07803 l 0.301014,-0.03104 -0.646299,0.649674 c -0.355465,0.357322 -0.66886,0.649675 -0.696433,0.649675 -0.02757,0 -0.127735,-0.207509 -0.222583,-0.461129 z"
     style="fill:#00ffff;fill-opacity:0.0901961;stroke-width:0.0771084" />
  <path
     id="path366"
     d="m 22.909978,39.036145 c -0.04787,-0.116627 -0.119079,-0.324885 -0.158231,-0.462796 -0.09424,-0.331951 0.0184,-0.388811 0.894364,-0.451469 l 0.6816,-0.04876 -0.576384,0.587534 c -0.31701,0.323144 -0.616415,0.587535 -0.665344,0.587535 -0.04893,0 -0.12813,-0.09542 -0.176005,-0.212048 z"
     style="fill:#00ffff;fill-opacity:0.0901961;stroke-width:0.0771084" />
  <path
     id="path368"
     d="m 22.999343,39.156175 c -0.04522,-0.05541 -0.127246,-0.252426 -0.182287,-0.437805 -0.08883,-0.299193 -0.08549,-0.347715 0.02976,-0.431988 0.114331,-0.0836 1.276075,-0.232568 1.33718,-0.171463 0.01295,0.01295 -0.229804,0.275197 -0.539449,0.582776 -0.439633,0.436699 -0.581005,0.537157 -0.645203,0.45848 z"
     style="fill:#00ffff;fill-opacity:0.0901961;stroke-width:0.0771084" />
  <path
     id="path370"
     d="m 22.860351,38.778617 c -0.08132,-0.244833 -0.103102,-0.419721 -0.0579,-0.46492 0.07895,-0.07895 1.270327,-0.232891 1.331209,-0.172009 0.04992,0.04992 -0.962096,1.029396 -1.063586,1.029396 -0.04365,0 -0.138023,-0.17661 -0.209719,-0.392467 z"
     style="fill:#00ffff;fill-opacity:0.0901961;stroke-width:0.0771084" />
  <path
     id="path372"
     d="m 22.941142,38.942434 c -0.190333,-0.368064 -0.130114,-0.646413 0.152834,-0.706439 0.34279,-0.07272 0.963855,-0.0765 0.963855,-0.0059 0,0.05734 -0.301007,0.355494 -0.78435,0.776903 l -0.206038,0.179636 z"
     style="fill:#00ffff;fill-opacity:0.0901961;stroke-width:0.0771084" />
  <path
     id="path374"
     d="m 22.892828,38.787989 c -0.07094,-0.236789 -0.07085,-0.331077 3.99e-4,-0.416931 0.09527,-0.114787 0.982485,-0.255989 1.068432,-0.170042 0.06321,0.06321 -0.75565,0.89296 -0.881231,0.89296 -0.05276,0 -0.137178,-0.137694 -0.1876,-0.305987 z"
     style="fill:#00ffff;fill-opacity:0.0901961;stroke-width:0.0771084" />
  <path
     id="path376"
     d="m 22.936591,38.828407 c -0.184249,-0.440969 -0.1023,-0.526298 0.600758,-0.625541 0.294936,-0.04163 0.366265,-0.02953 0.366265,0.06217 0,0.105379 -0.707264,0.828945 -0.810269,0.828945 -0.02519,0 -0.09572,-0.119506 -0.156754,-0.265569 z"
     style="fill:#00ffff;fill-opacity:0.0901961;stroke-width:0.0771084" />
  <path
     id="path378"
     d="m 18.030332,44.213954 c -0.03464,-0.303596 0.113156,-1.621699 0.190514,-1.699057 0.01893,-0.01893 0.165998,0.04322 0.326819,0.138105 0.160821,0.09489 0.442023,0.210512 0.624893,0.256944 l 0.332491,0.08442 -0.724602,0.721589 c -0.708465,0.705519 -0.72517,0.716609 -0.750115,0.497996 z"
     style="fill:#00ffff;fill-opacity:0.0901961;stroke-width:0.0771084" />
  <path
     id="path380"
     d="m 18.044901,44.01908 c 0.0017,-0.373664 0.136185,-1.387315 0.191396,-1.442526 0.01936,-0.01936 0.239775,0.05661 0.489815,0.168823 0.25004,0.112211 0.511002,0.204021 0.579916,0.204021 0.211247,0 0.14629,0.09915 -0.433739,0.66205 -0.839889,0.815086 -0.82921,0.809825 -0.827388,0.407632 z"
     style="fill:#00ffff;fill-opacity:0.0901961;stroke-width:0.0771084" />
  <path
     id="path382"
     d="m 18.043373,44.073049 c 0,-0.242713 0.157372,-1.374808 0.200903,-1.445242 0.0184,-0.02977 0.224603,0.03041 0.458232,0.133732 0.233629,0.103322 0.47584,0.187859 0.538245,0.187859 0.0624,0 0.113464,0.02684 0.113464,0.05964 0,0.07546 -1.179043,1.251203 -1.254718,1.251203 -0.03087,0 -0.05613,-0.08424 -0.05613,-0.187192 z"
     style="fill:#00ffff;fill-opacity:0.0901961;stroke-width:0.0771084" />
  <path
     id="path384"
     d="m 18.072896,43.893976 c 0.02369,-0.159036 0.0655,-0.489133 0.0929,-0.733549 0.0274,-0.244416 0.07488,-0.459882 0.105513,-0.478813 0.03063,-0.01893 0.292816,0.04844 0.582632,0.149707 l 0.526938,0.184126 -0.56612,0.583843 c -0.647319,0.667582 -0.806855,0.730954 -0.741861,0.294686 z"
     style="fill:#00ffff;fill-opacity:0.0901961;stroke-width:0.0771084" />
  <path
     id="path386"
     d="m 18.112096,44.149043 c -0.05954,-0.05954 0.0917,-1.305863 0.168274,-1.386652 0.06569,-0.06931 0.996738,0.179187 0.996738,0.26603 0,0.0761 -1.126222,1.159413 -1.165012,1.120622 z"
     style="fill:#00ffff;fill-opacity:0.0901961;stroke-width:0.0771084" />
  <path
     id="path388"
     d="m 18.120929,43.896689 c 4.99e-4,-0.240348 0.133798,-1.10724 0.176881,-1.150322 0.02908,-0.02909 0.815666,0.190172 0.929137,0.258993 0.06974,0.0423 -0.744263,0.906854 -0.971525,1.031864 -0.114013,0.06271 -0.134871,0.04092 -0.134493,-0.140535 z"
     style="fill:#00ffff;fill-opacity:0.0901961;stroke-width:0.0771084" />
  <path
     id="path390"
     d="m 18.155867,43.585542 c 0.07752,-0.646644 0.122485,-0.790361 0.247263,-0.790361 0.244361,0 0.79687,0.177478 0.79687,0.255973 0,0.110512 -0.894477,0.977762 -1.008459,0.977762 -0.0629,0 -0.07331,-0.129437 -0.03567,-0.443374 z"
     style="fill:#00ffff;fill-opacity:0.0901961;stroke-width:0.0771084" />
  <path
     id="path392"
     d="m 22.592771,49.684915 c -1.02867,-0.402399 -1.323143,-0.54062 -1.759909,-0.826075 -0.605907,-0.396 -1.490832,-1.198146 -1.324428,-1.200537 0.06361,-9.1e-4 0.375903,0.06997 0.693976,0.157507 0.349175,0.0961 0.931443,0.175717 1.469568,0.200933 1.203517,0.0564 1.933987,-0.0915 2.996817,-0.606754 0.714328,-0.346302 0.88605,-0.472397 1.543719,-1.133552 0.851835,-0.85635 1.213191,-1.429325 1.563322,-2.478847 0.223731,-0.670637 0.244523,-0.817226 0.246075,-1.734939 0.0015,-0.859937 -0.02807,-1.108005 -0.207698,-1.745353 -0.264953,-0.940073 -0.26255,-0.993564 0.03223,-0.717266 0.793739,0.743965 1.565607,1.97542 1.796372,2.865967 0.184298,0.711234 0.165353,2.36996 -0.03534,3.094193 -0.490339,1.76945 -1.765509,3.159354 -3.587224,3.909989 -0.513119,0.211431 -0.594945,0.221655 -1.923864,0.240401 -0.763374,0.01077 -1.44,-7.79e-4 -1.503615,-0.02567 z"
     style="fill:#00ffff;fill-opacity:0.0901961;stroke-width:0.0771084" />
  <path
     id="path394"
     d="m 22.631325,49.662009 c -0.471729,-0.116532 -1.423918,-0.561232 -1.874309,-0.875356 -0.607655,-0.423809 -1.220109,-1.001766 -1.102945,-1.040822 0.05071,-0.0169 0.342293,0.03337 0.647975,0.11172 0.42946,0.110072 0.827439,0.141269 1.750966,0.137257 1.346344,-0.0058 1.663293,-0.08147 2.814458,-0.671481 0.476515,-0.244231 0.785202,-0.483924 1.35672,-1.053482 0.823857,-0.821031 1.190739,-1.400033 1.563388,-2.467294 0.214008,-0.612918 0.230484,-0.737972 0.22923,-1.7399 -0.0011,-0.919203 -0.03102,-1.188171 -0.201136,-1.811157 -0.109882,-0.4024 -0.185139,-0.746284 -0.167238,-0.764185 0.120029,-0.120029 1.201703,1.253261 1.580425,2.006502 0.168037,0.334207 0.35664,0.824459 0.419119,1.089449 0.146511,0.621393 0.146015,2.02303 -9.64e-4,2.717945 -0.142726,0.67482 -0.595234,1.622653 -1.081825,2.266016 -0.762878,1.008666 -2.228301,1.929963 -3.321074,2.087926 -0.606944,0.08774 -2.267758,0.0921 -2.612794,0.0069 z"
     style="fill:#00ffff;fill-opacity:0.0901961;stroke-width:0.0771084" />
  <path
     id="path396"
     d="m 22.846565,49.659306 c -0.802192,-0.09138 -2.361037,-0.942977 -3.023576,-1.651785 -0.102657,-0.109826 -0.167108,-0.219225 -0.143223,-0.24311 0.02388,-0.02388 0.246671,0.01278 0.495083,0.08149 0.256082,0.07082 0.902411,0.142879 1.492621,0.166406 1.336746,0.05329 1.915038,-0.06199 3.007229,-0.599441 0.712291,-0.350511 0.898687,-0.487503 1.550264,-1.139372 0.825214,-0.825585 1.242889,-1.487053 1.587714,-2.514453 0.182699,-0.544344 0.207508,-0.73925 0.211025,-1.657831 0.0033,-0.850268 -0.02942,-1.172247 -0.178361,-1.757603 -0.100289,-0.394151 -0.157221,-0.741139 -0.126515,-0.771084 0.07369,-0.07187 0.571314,0.497896 1.06365,1.217843 0.778596,1.138549 1.036804,2.099889 0.955045,3.555748 -0.07876,1.402387 -0.552263,2.539425 -1.463464,3.514225 -0.61158,0.654268 -1.134572,1.037918 -1.945007,1.426792 -0.581484,0.279015 -0.737986,0.318773 -1.480008,0.375985 -0.95163,0.07337 -1.331275,0.07265 -2.002477,-0.0038 z"
     style="fill:#00ffff;fill-opacity:0.0901961;stroke-width:0.0771084" />
</svg>
